# Blender v3.2.1 OBJ File: ''
# www.blender.org
mtllib barrel.mtl
o Barrel_w_Barrel_w_0
v -0.011007 0.203353 -0.089008
v 0.033872 0.203353 -0.089008
v 0.033872 0.212926 -0.089008
v -0.011007 0.212926 -0.089008
v -0.047226 0.203353 -0.062809
v -0.047226 0.212926 -0.062809
v -0.061059 0.203353 -0.020126
v -0.061059 0.212926 -0.020126
v -0.011007 0.203353 0.048756
v -0.047226 0.203353 0.022263
v -0.047226 0.212926 0.022263
v -0.011007 0.212926 0.048756
v 0.033872 0.203353 0.048756
v 0.033872 0.212926 0.048756
v 0.070091 0.203353 0.022263
v 0.070091 0.212926 0.022263
v -0.092105 0.135699 -0.020126
v -0.072358 0.135699 -0.081062
v -0.072358 0.070519 -0.081062
v -0.092105 0.070519 -0.020126
v 0.070091 0.203353 -0.062809
v 0.070091 0.212926 -0.062809
v 0.083924 0.203353 -0.020126
v 0.083924 0.212926 -0.020126
v 0.044854 0.069013 -0.122856
v 0.098919 0.069013 -0.083710
v 0.098919 0.048685 -0.083710
v 0.044854 0.048685 -0.122856
v -0.076054 0.137097 -0.083710
v -0.096645 0.137097 -0.020126
v -0.096645 0.157533 -0.020126
v -0.076054 0.157533 -0.083710
v -0.021989 0.137097 -0.122856
v -0.021989 0.157533 -0.122856
v 0.044854 0.137097 -0.122856
v 0.044854 0.157533 -0.122856
v -0.076054 0.157533 0.043457
v -0.076054 0.137097 0.043457
v -0.021989 0.157533 0.082603
v -0.021989 0.137097 0.082603
v 0.044854 0.157533 0.082603
v 0.044854 0.137097 0.082603
v -0.096645 0.069013 -0.020126
v -0.076054 0.069013 -0.083710
v -0.076054 0.048685 -0.083710
v -0.096645 0.048685 -0.020126
v 0.098919 0.157533 0.043457
v 0.098919 0.137097 0.043457
v 0.119510 0.157533 -0.020126
v 0.119510 0.137097 -0.020126
v 0.098919 0.157533 -0.083710
v 0.098919 0.137097 -0.083710
v 0.080545 0.212926 0.029915
v 0.037884 0.212926 0.061115
v 0.043481 0.158932 0.078194
v 0.095223 0.158932 0.040806
v 0.043481 0.158932 -0.118736
v -0.020616 0.158932 -0.118736
v -0.015019 0.212926 -0.101368
v 0.037884 0.212926 -0.101368
v -0.057680 0.212926 0.029915
v -0.074048 0.212926 -0.020126
v -0.092105 0.158932 -0.020126
v -0.072358 0.158932 0.040806
v -0.072358 0.047179 -0.081062
v -0.020616 0.047179 -0.118736
v -0.015019 -0.007245 -0.101368
v -0.057680 -0.007245 -0.070461
v -0.092105 0.047179 -0.020126
v -0.074048 -0.007245 -0.020126
v 0.095223 0.047179 0.040806
v 0.043481 0.047179 0.078194
v 0.037884 -0.007245 0.061115
v 0.080545 -0.007245 0.029915
v 0.114969 0.047179 -0.020126
v 0.096913 -0.007245 -0.020126
v 0.095223 0.047179 -0.081062
v 0.080545 -0.007245 -0.070461
v 0.043481 0.047179 -0.118736
v 0.037884 -0.007245 -0.101368
v -0.020616 0.047179 0.078194
v -0.015019 -0.007245 0.061115
v -0.021989 0.048685 -0.122856
v -0.072358 0.070519 0.040806
v -0.076054 0.069013 0.043457
v 0.119510 0.048685 -0.020126
v 0.098919 0.048685 0.043457
v -0.072358 0.135699 0.040806
v -0.020616 0.135699 0.078194
v 0.043481 0.135699 0.078194
v 0.095223 0.070519 0.040806
v 0.043481 0.070519 0.078194
v 0.044854 0.069013 0.082603
v 0.098919 0.069013 0.043457
v -0.076054 0.048685 0.043457
v -0.072358 0.047179 0.040806
v 0.095223 0.158932 -0.081062
v 0.095223 0.070519 -0.081062
v 0.114969 0.070519 -0.020126
v 0.119510 0.069013 -0.020126
v -0.021989 0.048685 0.082603
v -0.020616 0.070519 0.078194
v -0.021989 0.069013 0.082603
v -0.020616 0.070519 -0.118736
v 0.043481 0.070519 -0.118736
v -0.021989 0.069013 -0.122856
v 0.095223 0.135699 0.040806
v 0.114969 0.135699 -0.020126
v -0.057680 0.212926 -0.070461
v 0.096913 0.212926 -0.020126
v 0.080545 0.212926 -0.070461
v -0.015019 0.212926 0.061115
v 0.033872 -0.007245 -0.089008
v -0.011007 -0.007245 -0.089008
v 0.033872 -0.007245 0.048756
v 0.070091 -0.007245 0.022263
v 0.083924 -0.007245 -0.020126
v 0.070091 -0.007245 -0.062809
v 0.083924 0.005339 -0.020126
v 0.070091 0.005339 0.022263
v -0.061059 0.005339 -0.020126
v -0.047226 0.005339 -0.062809
v 0.033872 0.005339 0.048756
v 0.070091 0.005339 -0.062809
v 0.033872 0.005339 -0.089008
v -0.011007 0.005339 -0.089008
v -0.047226 -0.007245 -0.062809
v -0.061059 -0.007245 -0.020126
v -0.047226 0.005339 0.022263
v -0.011007 0.005339 0.048756
v -0.011007 -0.007245 0.048756
v -0.047226 -0.007245 0.022263
v 0.044854 0.048685 0.082603
v -0.072358 0.158932 -0.081062
v -0.057680 -0.007245 0.029915
v -0.020616 0.158932 0.078194
v 0.114969 0.158932 -0.020126
v -0.020616 0.135699 -0.118736
v 0.043481 0.135699 -0.118736
v 0.095223 0.135699 -0.081062
vt 0.685142 0.816435
vt 0.812872 0.762759
vt 0.802098 0.816435
vt 0.935695 0.845255
vt 0.902775 0.887524
vt 0.990163 0.989834
vt 0.946469 0.989954
vt 0.902775 0.887524
vt 0.812872 0.762759
vt 0.802098 0.816435
vt 0.673410 0.762759
vt 0.685142 0.816435
vt 0.559446 0.844775
vt 0.591648 0.887524
vt 0.570340 0.431212
vt 0.705852 0.273425
vt 0.705852 0.431212
vt 0.559446 0.844775
vt 0.673410 0.762759
vt 0.552264 0.989954
vt 0.591648 0.887524
vt 0.848785 0.257574
vt 0.990881 0.192850
vt 0.990881 0.257574
vt 0.705852 0.447183
vt 0.570340 0.511787
vt 0.570340 0.447183
vt 0.429681 0.511787
vt 0.429681 0.447183
vt 0.295845 0.511787
vt 0.295845 0.447183
vt 0.016202 0.511787
vt 0.149200 0.447183
vt 0.149200 0.511787
vt 0.295845 0.447183
vt 0.295845 0.511787
vt 0.429681 0.447183
vt 0.429681 0.511787
vt 0.570340 0.257574
vt 0.705852 0.192850
vt 0.705852 0.257574
vt 0.570340 0.447183
vt 0.570340 0.511787
vt 0.705852 0.447183
vt 0.705852 0.511787
vt 0.848785 0.447183
vt 0.848785 0.511787
vt 0.429681 0.684345
vt 0.570340 0.526677
vt 0.570340 0.684345
vt 0.295845 0.526677
vt 0.429681 0.684345
vt 0.295845 0.684345
vt 0.149200 0.684345
vt 0.016202 0.526677
vt 0.149200 0.526677
vt 0.570340 0.178079
vt 0.429681 0.026536
vt 0.570340 0.026536
vt 0.705852 0.026536
vt 0.705852 0.178079
vt 0.570340 0.178079
vt 0.429681 0.026536
vt 0.570340 0.026536
vt 0.705852 0.178079
vt 0.705852 0.026536
vt 0.848785 0.178079
vt 0.848785 0.026536
vt 0.990881 0.026536
vt 0.990881 0.178079
vt 0.429681 0.178079
vt 0.295845 0.026536
vt 0.429681 0.178079
vt 0.295845 0.192850
vt 0.295845 0.178079
vt 0.016202 0.273425
vt 0.149200 0.257574
vt 0.149200 0.273425
vt 0.570340 0.192850
vt 0.705852 0.192850
vt 0.295845 0.431212
vt 0.429681 0.431212
vt 0.429681 0.273425
vt 0.570340 0.257574
vt 0.570340 0.273425
vt 0.149200 0.192850
vt 0.016202 0.178079
vt 0.149200 0.178079
vt 0.570340 0.192850
vt 0.848785 0.192850
vt 0.848785 0.526677
vt 0.990881 0.511787
vt 0.990881 0.526677
vt 0.705852 0.273425
vt 0.848785 0.273425
vt 0.295845 0.178079
vt 0.295845 0.192850
vt 0.295845 0.273425
vt 0.429681 0.257574
vt 0.295845 0.257574
vt 0.429681 0.192850
vt 0.295845 0.273425
vt 0.429681 0.257574
vt 0.429681 0.273425
vt 0.990881 0.273425
vt 0.705852 0.431212
vt 0.570340 0.684345
vt 0.429681 0.743666
vt 0.705852 0.684345
vt 0.570340 0.743666
vt 0.848785 0.743666
vt 0.705852 0.684345
vt 0.848785 0.684345
vt 0.295845 0.743666
vt 0.295845 0.684345
vt 0.295845 0.026536
vt 0.429681 0.006482
vt 0.429681 0.006482
vt 0.570340 0.006482
vt 0.149200 0.743666
vt 0.016202 0.684345
vt 0.848785 0.006482
vt 0.990881 0.743666
vt 0.990881 0.684345
vt 0.295845 0.743666
vt 0.093894 0.887044
vt 0.406217 0.887044
vt 0.054270 0.989954
vt 0.508689 0.989954
vt 0.187747 0.815715
vt 0.061213 0.845255
vt 0.175895 0.761918
vt 0.093894 0.887044
vt 0.010336 0.990074
vt 0.187747 0.815715
vt 0.061333 0.845255
vt 0.305063 0.815715
vt 0.175895 0.761918
vt 0.315956 0.761918
vt 0.449672 0.990074
vt 0.439138 0.844655
vt 0.305063 0.815715
vt 0.439138 0.844655
vt 0.406217 0.887044
vt 0.315956 0.761918
vt 0.990881 0.447183
vt 0.295845 0.257574
vt 0.016202 0.257574
vt 0.429681 0.192850
vt 0.705852 0.257574
vt 0.570340 0.526677
vt 0.429681 0.526677
vt 0.295845 0.526677
vt 0.705852 0.526677
vt 0.429681 0.526677
vt 0.149200 0.026536
vt 0.429681 0.431212
vt 0.570340 0.431212
vt 0.295845 0.431212
vt 0.705852 0.526677
vt 0.705852 0.511787
vt 0.016202 0.431212
vt 0.149200 0.431212
vt 0.848785 0.431212
vt 0.295845 0.006482
vt 0.570340 0.273425
vt 0.990881 0.431212
vt 0.429681 0.743666
vt 0.570340 0.743666
vt 0.570340 0.006482
vt 0.705852 0.006482
vt 0.705852 0.006482
vt 0.016202 0.026536
vt 0.149200 0.006482
vt 0.990881 0.006482
vt 0.705852 0.743666
vt 0.935695 0.845255
vt 0.493606 0.990074
vt 0.016202 0.447183
vt 0.016202 0.192850
vt 0.705852 0.743666
vt 0.295845 0.006482
vt 0.016202 0.743666
vt 0.016202 0.006482
vn -0.3080 0.0000 0.9514
vn 0.3080 0.0000 0.9514
vn 0.8086 0.0000 0.5883
vn 1.0000 0.0000 -0.0010
vn 0.8096 0.0000 -0.5870
vn 0.3105 0.0000 -0.9506
vn -0.3105 0.0000 -0.9506
vn -0.8096 0.0000 -0.5870
vn -0.8095 0.0000 -0.5871
vn -0.9513 0.0000 -0.3083
vn -0.8086 0.0000 0.5883
vn -1.0000 0.0000 -0.0010
vn 0.8088 0.0000 -0.5881
vn 0.5865 0.0000 -0.8100
vn -0.9514 0.0000 -0.3081
vn -0.8088 0.0000 -0.5881
vn -0.3082 0.0000 -0.9513
vn 0.0000 0.0000 -1.0000
vn -0.9514 0.0000 0.3081
vn -0.8088 0.0000 0.5880
vn -0.3082 0.0000 0.9513
vn 0.3082 0.0000 0.9513
vn 0.8088 0.0000 0.5881
vn 1.0000 0.0000 -0.0000
vn 0.2929 0.3172 0.9020
vn 0.7670 0.3193 0.5566
vn 0.7674 0.3200 0.5556
vn 0.0000 0.3062 -0.9520
vn -0.2929 0.3196 -0.9011
vn -0.7673 0.3198 0.5558
vn -0.9058 0.3042 0.2948
vn -0.7670 0.3192 0.5566
vn -0.7677 -0.3160 -0.5575
vn -0.2932 -0.3173 -0.9019
vn -0.7671 -0.3157 -0.5585
vn -0.9069 -0.3014 -0.2944
vn -0.9072 -0.3010 -0.2940
vn 0.7672 -0.3170 0.5576
vn 0.2931 -0.3150 0.9027
vn 0.7680 -0.3176 0.5561
vn 0.9489 -0.3155 0.0006
vn 0.9490 -0.3151 0.0012
vn 0.7677 -0.3160 -0.5575
vn 0.7671 -0.3157 -0.5585
vn 0.5602 -0.3025 -0.7712
vn 0.5609 -0.3035 -0.7703
vn 0.2923 -0.3133 0.9035
vn -0.2931 -0.3150 0.9027
vn -0.1008 -0.9448 -0.3117
vn 0.0000 -0.9392 -0.3433
vn -0.3131 0.9443 0.1014
vn -0.2539 0.9494 0.1850
vn -0.2540 0.9493 0.1850
vn 0.2542 -0.9494 0.1846
vn 0.3147 -0.9492 0.0000
vn 0.3148 -0.9492 -0.0000
vn -0.2377 -0.9559 0.1726
vn -0.0898 -0.9571 0.2756
vn -0.0894 -0.9571 0.2757
vn 0.0896 -0.9571 0.2756
vn 0.0965 0.9507 0.2947
vn 0.2539 0.9493 0.1852
vn 0.2540 0.9493 0.1852
vn -0.2540 -0.9493 0.1851
vn -0.3131 -0.9443 0.1014
vn -0.2538 -0.9493 0.1854
vn -0.3131 -0.9443 -0.1014
vn -0.2544 -0.9492 -0.1850
vn -0.2544 -0.9492 -0.1853
vn 0.2541 -0.9492 -0.1855
vn 0.2008 -0.9400 -0.2759
vn 0.2542 -0.9493 -0.1851
vn 0.2376 0.9557 -0.1735
vn 0.1880 0.9476 -0.2583
vn 0.1884 0.9474 -0.2588
vn 0.3147 0.9492 -0.0000
vn 0.2544 0.9492 -0.1850
vn 0.2544 0.9492 -0.1853
vn -0.0965 -0.9507 0.2947
vn -0.0957 -0.9507 0.2949
vn -0.0960 0.9507 0.2948
vn 0.0957 0.9507 0.2949
vn -0.0959 0.9507 0.2948
vn -0.3131 0.9443 -0.1014
vn -0.2542 0.9493 -0.1851
vn -0.3132 0.9443 -0.1014
vn -0.1013 -0.9449 -0.3113
vn 0.0000 0.9392 -0.3433
vn -0.1009 0.9449 -0.3114
vn -0.1012 0.9448 -0.3116
vn 0.2008 0.9400 -0.2759
vn 0.2013 0.9397 -0.2764
vn 0.2374 -0.9559 0.1730
vn 0.2943 -0.9557 0.0000
vn -0.0000 1.0000 0.0000
vn -0.0000 -1.0000 -0.0000
vn -0.8088 0.0000 -0.5880
vn -0.7671 0.3182 -0.5570
vn -0.2934 0.3200 -0.9008
vn -0.7674 -0.3171 0.5572
vn -0.2925 -0.3136 0.9034
vn 0.0960 -0.9507 0.2948
vn 0.0958 -0.9507 0.2948
vn -0.2932 0.3171 0.9020
vn -0.2922 0.3158 0.9027
vn -0.9063 0.3036 -0.2941
vn -0.7665 0.3179 -0.5581
vn 0.5598 0.3047 -0.7706
vn 0.7671 0.3182 -0.5570
vn 0.5604 0.3057 -0.7697
vn 0.9482 0.3178 0.0006
vn 0.9483 0.3174 0.0012
vn 0.2922 0.3158 0.9027
vn -0.9065 -0.3017 0.2954
vn -0.7683 -0.3177 0.5557
vn 0.7665 0.3179 -0.5581
vn -0.2380 -0.9557 -0.1732
vn -0.0946 -0.9519 -0.2913
vn -0.0947 -0.9518 -0.2916
vn 0.2943 0.9557 0.0000
vn 0.2378 0.9558 -0.1731
vn 0.2375 0.9559 0.1729
vn 0.0896 0.9571 0.2757
vn 0.2372 0.9559 0.1734
vn -0.0895 0.9571 0.2757
vn 0.0895 0.9571 0.2756
vn 0.2375 -0.9559 0.1730
vn -0.2930 0.9514 0.0949
vn -0.2373 0.9559 0.1731
vn -0.2373 0.9559 0.1734
vn 0.0000 0.9469 -0.3214
vn -0.0945 0.9520 -0.2913
vn -0.0947 0.9519 -0.2915
vn 0.0000 -0.9469 -0.3214
vn -0.2930 0.9514 -0.0949
vn -0.2380 0.9558 -0.1727
vn -0.2376 0.9557 -0.1735
vn -0.2930 -0.9514 0.0949
vn -0.2373 -0.9558 0.1734
vn 0.2378 -0.9558 -0.1729
vn 0.2376 -0.9557 -0.1735
vn -0.0897 0.9571 0.2756
vn 0.3148 0.9492 -0.0000
vn -0.2930 -0.9514 -0.0949
vn -0.2378 -0.9558 -0.1731
vn -0.2543 0.9492 -0.1852
vn 0.1880 -0.9476 -0.2583
vn 0.1884 -0.9474 -0.2588
vn 0.2538 -0.9493 0.1854
vn -0.3095 0.0000 -0.9509
vn -0.9513 0.0000 0.3083
vn -0.8085 0.0000 0.5885
vn -0.3078 0.0000 0.9515
vn 0.3078 0.0000 0.9515
vn 0.8085 0.0000 0.5885
vn 0.8095 0.0000 -0.5871
vn 0.0000 -0.3040 -0.9527
vn -0.2933 -0.3179 -0.9016
vn 0.5886 0.0000 -0.8084
vn -0.9058 0.3029 0.2963
vn -0.3132 0.9443 0.1014
vn -0.3132 -0.9443 0.1014
vn -0.3132 -0.9443 -0.1014
vn 0.2013 -0.9397 -0.2764
vn -0.9065 0.3032 -0.2938
vn -0.9064 -0.3004 0.2968
usemtl Barrel_w
s 1
f 2/1/1 4/2/2 1/3/2
f 1/3/2 6/4/3 5/5/3
f 5/5/3 8/6/4 7/7/4
f 10/8/5 12/9/6 9/10/6
f 9/10/6 14/11/7 13/12/7
f 13/12/7 16/13/8 15/14/8
f 18/15/9 20/16/10 17/17/10
f 2/1/1 22/18/11 3/19/1
f 23/20/12 22/18/11 21/21/11
f 26/22/13 28/23/14 25/24/14
f 30/25/15 32/26/16 29/27/16
f 29/27/16 34/28/17 33/29/17
f 33/29/17 36/30/18 35/31/18
f 31/32/19 38/33/20 37/34/20
f 37/34/20 40/35/21 39/36/21
f 39/36/21 42/37/22 41/38/22
f 44/39/16 46/40/15 43/41/15
f 41/38/22 48/42/23 47/43/23
f 47/43/23 50/44/24 49/45/24
f 49/45/24 52/46/13 51/47/13
f 54/48/25 56/49/26 53/50/27
f 57/51/28 59/52/29 60/53/28
f 61/54/30 63/55/31 64/56/32
f 65/57/33 67/58/34 68/59/35
f 65/57/33 70/60/36 69/61/37
f 71/62/38 73/63/39 74/64/40
f 75/65/41 74/64/40 76/66/42
f 77/67/43 76/66/42 78/68/44
f 77/67/43 80/69/45 79/70/46
f 72/71/47 82/72/48 73/63/39
f 66/73/49 28/74/50 79/75/50
f 20/76/51 85/77/52 84/78/53
f 87/79/54 75/65/55 86/80/56
f 38/33/57 89/81/58 40/35/59
f 40/35/59 90/82/60 42/37/60
f 92/83/61 94/84/62 91/85/63
f 95/86/64 69/87/65 96/88/66
f 69/61/67 45/89/68 65/57/69
f 77/67/70 28/23/71 27/90/72
f 97/91/73 36/92/74 57/93/75
f 75/65/55 27/90/72 86/80/56
f 99/94/76 26/22/77 98/95/78
f 95/86/64 81/96/79 101/97/80
f 102/98/81 93/99/82 92/83/61
f 102/98/81 85/77/52 103/100/83
f 20/16/84 44/39/85 43/41/86
f 65/57/69 83/101/87 66/73/49
f 105/102/88 106/103/89 104/104/90
f 98/95/78 25/24/91 105/105/92
f 48/42/93 108/106/94 50/44/94
f 109/107/95 4/108/95 59/52/95
f 62/109/95 6/110/95 109/107/95
f 22/111/95 110/112/95 111/113/95
f 12/114/95 61/54/95 112/115/95
f 80/116/96 114/117/96 67/58/96
f 74/64/96 115/118/96 116/119/96
f 11/120/95 62/121/95 61/54/95
f 76/66/96 118/122/96 78/68/96
f 3/123/95 111/113/95 60/124/95
f 59/52/95 3/125/95 60/53/95
f 120/126/96 122/127/96 119/128/96
f 15/14/8 24/129/12 23/20/12
f 123/130/7 116/131/8 115/132/7
f 124/133/11 117/134/12 119/128/12
f 125/135/1 118/136/11 124/133/11
f 126/137/2 113/138/1 125/135/1
f 122/127/3 114/139/2 126/137/2
f 119/128/12 116/131/8 120/126/8
f 121/140/4 127/141/3 122/127/3
f 130/142/6 132/143/5 129/144/5
f 126/137/96 125/135/96 122/127/96
f 21/21/95 10/8/95 23/20/95
f 1/3/95 7/7/95 21/21/95
f 120/126/96 123/130/96 130/142/96
f 123/130/7 131/145/6 130/142/6
f 51/47/13 35/146/14 36/92/14
f 25/147/18 83/101/17 106/103/17
f 106/103/17 45/89/97 44/39/16
f 43/148/19 95/86/20 85/77/20
f 85/77/20 101/97/21 103/100/21
f 103/100/21 133/149/22 93/99/22
f 93/99/22 87/79/23 94/84/23
f 94/84/23 86/80/24 100/150/24
f 100/150/24 27/90/13 26/22/13
f 134/151/98 59/52/29 58/152/99
f 96/88/100 82/72/48 81/96/101
f 101/97/80 72/71/102 133/149/103
f 112/115/104 64/56/32 136/153/105
f 134/151/98 62/109/106 109/107/107
f 60/124/108 97/91/109 57/93/110
f 53/50/27 137/154/111 110/112/112
f 112/115/104 55/155/113 54/48/25
f 69/87/114 135/156/115 96/88/100
f 110/112/112 97/91/109 111/113/116
f 18/15/117 33/29/118 138/157/119
f 137/154/120 51/47/121 97/91/73
f 137/154/120 47/43/122 49/45/120
f 55/155/123 47/43/122 56/49/124
f 136/153/125 41/38/126 55/155/123
f 48/42/93 90/82/60 107/158/127
f 63/55/128 37/34/129 64/56/130
f 57/51/131 34/28/132 58/152/133
f 138/157/119 35/31/134 139/159/134
f 63/160/135 32/26/136 31/161/135
f 134/151/137 34/28/132 32/26/136
f 38/33/57 17/162/138 88/163/139
f 52/46/140 108/106/94 140/164/141
f 136/153/125 37/34/129 39/36/142
f 99/94/76 94/84/62 100/150/143
f 135/156/96 131/165/96 82/72/96
f 17/17/144 29/27/145 18/15/117
f 19/166/146 106/103/89 44/39/85
f 35/146/147 140/164/141 139/167/148
f 87/79/54 72/71/102 71/62/149
f 14/168/95 53/50/95 16/169/95
f 70/60/96 127/170/96 128/171/96
f 76/66/96 116/119/96 117/172/96
f 82/72/96 115/118/96 73/63/96
f 70/173/96 132/174/96 135/156/96
f 78/68/96 113/175/96 80/69/96
f 16/169/95 110/112/95 24/176/95
f 12/114/95 54/48/95 14/168/95
f 68/59/96 114/117/96 127/170/96
f 15/14/95 10/8/95 13/12/95
f 139/159/18 104/104/150 138/157/150
f 138/157/150 19/166/9 18/15/9
f 7/7/4 11/177/5 10/8/5
f 17/162/151 84/78/152 88/163/152
f 88/163/152 102/98/153 89/81/153
f 89/81/153 92/83/154 90/82/154
f 129/144/5 128/178/4 121/140/4
f 90/82/154 91/85/155 107/158/155
f 107/158/155 99/94/24 108/106/24
f 108/106/24 98/95/156 140/164/156
f 9/10/95 13/12/95 10/8/95
f 120/126/96 129/144/96 121/140/96
f 79/75/157 67/58/34 66/73/158
f 119/128/96 125/135/96 124/133/96
f 21/21/95 2/1/95 1/3/95
f 140/164/156 105/105/159 139/167/159
f 2/1/1 3/19/1 4/2/2
f 1/3/2 4/2/2 6/4/3
f 5/5/3 6/4/3 8/6/4
f 10/8/5 11/177/5 12/9/6
f 9/10/6 12/9/6 14/11/7
f 13/12/7 14/11/7 16/13/8
f 18/15/9 19/166/9 20/16/10
f 2/1/1 21/21/11 22/18/11
f 23/20/12 24/129/12 22/18/11
f 26/22/13 27/90/13 28/23/14
f 30/25/15 31/161/15 32/26/16
f 29/27/16 32/26/16 34/28/17
f 33/29/17 34/28/17 36/30/18
f 31/32/19 30/179/19 38/33/20
f 37/34/20 38/33/20 40/35/21
f 39/36/21 40/35/21 42/37/22
f 44/39/16 45/89/97 46/40/15
f 41/38/22 42/37/22 48/42/23
f 47/43/23 48/42/23 50/44/24
f 49/45/24 50/44/24 52/46/13
f 54/48/25 55/155/113 56/49/26
f 57/51/28 58/152/99 59/52/29
f 61/54/30 62/121/160 63/55/31
f 65/57/33 66/73/158 67/58/34
f 65/57/33 68/59/35 70/60/36
f 71/62/38 72/71/47 73/63/39
f 75/65/41 71/62/38 74/64/40
f 77/67/43 75/65/41 76/66/42
f 77/67/43 78/68/44 80/69/45
f 72/71/47 81/96/101 82/72/48
f 66/73/49 83/101/87 28/74/50
f 20/76/51 43/148/161 85/77/52
f 87/79/54 71/62/149 75/65/55
f 38/33/57 88/163/139 89/81/58
f 40/35/59 89/81/58 90/82/60
f 92/83/61 93/99/82 94/84/62
f 95/86/64 46/180/162 69/87/65
f 69/61/67 46/40/163 45/89/68
f 77/67/70 79/70/164 28/23/71
f 97/91/73 51/47/121 36/92/74
f 75/65/55 77/67/70 27/90/72
f 99/94/76 100/150/143 26/22/77
f 95/86/64 96/88/66 81/96/79
f 102/98/81 103/100/83 93/99/82
f 102/98/81 84/78/53 85/77/52
f 20/16/84 19/166/146 44/39/85
f 65/57/69 45/89/68 83/101/87
f 105/102/88 25/147/88 106/103/89
f 98/95/78 26/22/77 25/24/91
f 48/42/93 107/158/127 108/106/94
f 109/107/95 6/110/95 4/108/95
f 62/109/95 8/181/95 6/110/95
f 22/111/95 24/176/95 110/112/95
f 12/114/95 11/120/95 61/54/95
f 80/116/96 113/182/96 114/117/96
f 74/64/96 73/63/96 115/118/96
f 11/120/95 8/183/95 62/121/95
f 76/66/96 117/172/96 118/122/96
f 3/123/95 22/111/95 111/113/95
f 59/52/95 4/108/95 3/125/95
f 120/126/96 121/140/96 122/127/96
f 15/14/8 16/13/8 24/129/12
f 123/130/7 120/126/8 116/131/8
f 124/133/11 118/136/11 117/134/12
f 125/135/1 113/138/1 118/136/11
f 126/137/2 114/139/2 113/138/1
f 122/127/3 127/141/3 114/139/2
f 119/128/12 117/134/12 116/131/8
f 121/140/4 128/178/4 127/141/3
f 130/142/6 131/145/6 132/143/5
f 21/21/95 7/7/95 10/8/95
f 1/3/95 5/5/95 7/7/95
f 123/130/7 115/132/7 131/145/6
f 51/47/13 52/46/13 35/146/14
f 25/147/18 28/74/18 83/101/17
f 106/103/17 83/101/17 45/89/97
f 43/148/19 46/180/19 95/86/20
f 85/77/20 95/86/20 101/97/21
f 103/100/21 101/97/21 133/149/22
f 93/99/22 133/149/22 87/79/23
f 94/84/23 87/79/23 86/80/24
f 100/150/24 86/80/24 27/90/13
f 134/151/98 109/107/107 59/52/29
f 96/88/100 135/156/115 82/72/48
f 101/97/80 81/96/79 72/71/102
f 112/115/104 61/54/30 64/56/32
f 134/151/98 63/160/165 62/109/106
f 60/124/108 111/113/116 97/91/109
f 53/50/27 56/49/26 137/154/111
f 112/115/104 136/153/105 55/155/113
f 69/87/114 70/173/166 135/156/115
f 110/112/112 137/154/111 97/91/109
f 18/15/117 29/27/145 33/29/118
f 137/154/120 49/45/120 51/47/121
f 137/154/120 56/49/124 47/43/122
f 55/155/123 41/38/126 47/43/122
f 136/153/125 39/36/142 41/38/126
f 48/42/93 42/37/60 90/82/60
f 63/55/128 31/32/128 37/34/129
f 57/51/131 36/30/131 34/28/132
f 138/157/119 33/29/118 35/31/134
f 63/160/135 134/151/137 32/26/136
f 134/151/137 58/152/133 34/28/132
f 38/33/57 30/179/138 17/162/138
f 52/46/140 50/44/94 108/106/94
f 136/153/125 64/56/130 37/34/129
f 99/94/76 91/85/63 94/84/62
f 135/156/96 132/174/96 131/165/96
f 17/17/144 30/25/144 29/27/145
f 19/166/146 104/104/90 106/103/89
f 35/146/147 52/46/140 140/164/141
f 87/79/54 133/149/103 72/71/102
f 14/168/95 54/48/95 53/50/95
f 70/60/96 68/59/96 127/170/96
f 76/66/96 74/64/96 116/119/96
f 82/72/96 131/165/96 115/118/96
f 70/173/96 128/184/96 132/174/96
f 78/68/96 118/122/96 113/175/96
f 16/169/95 53/50/95 110/112/95
f 12/114/95 112/115/95 54/48/95
f 68/59/96 67/58/96 114/117/96
f 15/14/95 23/20/95 10/8/95
f 139/159/18 105/102/18 104/104/150
f 138/157/150 104/104/150 19/166/9
f 7/7/4 8/6/4 11/177/5
f 17/162/151 20/76/151 84/78/152
f 88/163/152 84/78/152 102/98/153
f 89/81/153 102/98/153 92/83/154
f 129/144/5 132/143/5 128/178/4
f 90/82/154 92/83/154 91/85/155
f 107/158/155 91/85/155 99/94/24
f 108/106/24 99/94/24 98/95/156
f 120/126/96 130/142/96 129/144/96
f 79/75/157 80/116/157 67/58/34
f 119/128/96 122/127/96 125/135/96
f 140/164/156 98/95/156 105/105/159
