# Blender v3.2.1 OBJ File: ''
# www.blender.org
mtllib fence.mtl
o Fence_w_Fence_w_0
v 0.016928 0.177812 -0.007927
v 0.016928 0.204947 0.014782
v 0.016928 -0.024794 -0.007927
v -0.014382 0.177812 -0.007927
v -0.014382 -0.024794 -0.007927
v -0.014382 0.204947 0.014782
v 0.016928 0.177812 0.037491
v 0.016928 -0.024794 0.037491
v 0.016928 0.177812 -0.321312
v 0.016928 0.204947 -0.298603
v 0.016928 -0.024794 -0.321312
v -0.014382 -0.024794 0.037491
v -0.014382 0.177812 0.037491
v -0.014382 0.177812 -0.321312
v -0.014382 -0.024794 -0.321312
v -0.014382 0.204947 -0.298603
v 0.016928 0.177812 -0.275894
v 0.016928 -0.024794 -0.275894
v -0.014382 -0.024794 -0.275894
v -0.014382 0.177812 -0.275894
v -0.006444 0.009577 -0.071510
v 0.008990 0.009577 -0.071510
v 0.008990 0.020431 0.001156
v -0.006444 0.020431 0.001156
v -0.006444 0.004150 -0.144180
v 0.008990 0.004150 -0.144180
v -0.006444 0.009577 -0.212307
v 0.008990 0.009577 -0.212307
v -0.006444 0.020431 -0.284981
v 0.008990 0.020431 -0.284981
v -0.006444 0.085554 -0.144180
v 0.008990 0.085554 -0.144180
v 0.008990 0.090981 -0.071510
v -0.006444 0.090981 -0.071510
v 0.008990 0.040330 -0.071510
v 0.008990 0.034903 -0.144180
v -0.006444 0.034903 -0.144180
v -0.006444 0.040330 -0.071510
v 0.008990 0.040330 -0.212307
v -0.006444 0.040330 -0.212307
v -0.006444 0.101835 -0.284981
v -0.006444 0.090981 -0.212307
v -0.006444 0.121734 -0.212307
v -0.006444 0.134397 -0.284981
v 0.008990 0.116307 -0.144180
v 0.008990 0.121734 -0.071510
v -0.006444 0.116307 -0.144180
v -0.006444 0.051184 -0.284981
v 0.008990 0.051184 0.001156
v -0.006444 0.051184 0.001156
v 0.008990 0.051184 -0.284981
v 0.008990 0.101835 -0.284981
v 0.008990 0.090981 -0.212307
v 0.008990 0.101835 0.001156
v -0.006444 0.101835 0.001156
v 0.008990 0.121734 -0.212307
v 0.008990 0.134397 -0.284981
v -0.006444 0.121734 -0.071510
v -0.006444 0.134397 0.001156
v 0.008990 0.134397 0.001156
vt 0.194559 0.877086
vt 0.101430 0.989175
vt 0.194559 0.016584
vt 0.008660 0.877086
vt 0.008660 0.016584
vt 0.101669 0.989175
vt 0.008421 0.877086
vt 0.521525 0.877086
vt 0.428397 0.989175
vt 0.521525 0.016584
vt 0.194559 0.877086
vt 0.335627 0.877086
vt 0.335627 0.016584
vt 0.428636 0.989175
vt 0.335388 0.877086
vt 0.646454 0.016584
vt 0.521525 0.877086
vt 0.521525 0.016584
vt 0.846460 0.745404
vt 0.782860 0.988107
vt 0.782860 0.745404
vt 0.846460 0.502702
vt 0.782860 0.502702
vt 0.846460 0.259999
vt 0.782860 0.259999
vt 0.846460 0.017416
vt 0.782860 0.017416
vt 0.846460 0.502702
vt 0.782860 0.745404
vt 0.782860 0.502702
vt 0.782860 0.502702
vt 0.846460 0.745404
vt 0.782860 0.745404
vt 0.782860 0.259999
vt 0.846460 0.502702
vt 0.866783 0.988107
vt 0.987647 0.745404
vt 0.987647 0.988107
vt 0.866783 0.745404
vt 0.987647 0.502702
vt 0.987647 0.745404
vt 0.866783 0.745404
vt 0.987647 0.502702
vt 0.662115 0.988107
vt 0.782860 0.745404
vt 0.782860 0.988107
vt 0.662115 0.988107
vt 0.782860 0.988107
vt 0.662115 0.017416
vt 0.782860 0.259999
vt 0.662115 0.259999
vt 0.662115 0.745404
vt 0.662115 0.017416
vt 0.662115 0.259999
vt 0.782860 0.502702
vt 0.661996 0.502702
vt 0.646454 0.989175
vt 0.521525 0.989175
vt 0.846460 0.017416
vt 0.782860 0.259999
vt 0.782860 0.017416
vt 0.846460 0.745404
vt 0.782860 0.988107
vt 0.782860 0.017416
vt 0.846460 0.259999
vt 0.782860 0.259999
vt 0.846460 0.259999
vt 0.782860 0.502702
vt 0.846460 0.745404
vt 0.782860 0.745404
vt 0.846460 0.502702
vt 0.866783 0.017416
vt 0.987647 0.259999
vt 0.866783 0.259999
vt 0.866783 0.502702
vt 0.661996 0.502702
vt 0.866783 0.988107
vt 0.987647 0.988107
vt 0.866783 0.017416
vt 0.987647 0.259999
vt 0.866783 0.259999
vt 0.662115 0.745404
vt 0.866783 0.502702
vt 0.846460 0.988107
vt 0.846460 0.988107
vt 0.782860 0.988107
vt 0.319368 0.989175
vt 0.194559 0.989175
vt 0.319368 0.016584
vt 0.194559 0.016584
vt 0.319368 0.989175
vt 0.194559 0.989175
vt 0.319368 0.016584
vt 0.646454 0.989175
vt 0.521525 0.989175
vt 0.782860 0.017416
vt 0.846460 0.259999
vt 0.646454 0.016584
vt 0.008421 0.016584
vt 0.335388 0.016584
vt 0.646454 0.877086
vt 0.846460 0.988107
vt 0.782860 0.017416
vt 0.646454 0.877086
vt 0.846460 0.988107
vt 0.846460 0.017416
vt 0.987647 0.017416
vt 0.987647 0.017416
vt 0.319368 0.877086
vt 0.319368 0.877086
vt 0.846460 0.017416
vn 1.0000 0.0000 0.0000
vn -1.0000 0.0000 0.0000
vn 0.0000 0.0000 1.0000
vn 0.0000 0.3414 0.9399
vn 0.0000 -0.9938 0.1112
vn 0.0000 -0.9890 0.1477
vn 0.0000 -1.0000 -0.0025
vn 0.0000 -0.9935 -0.1136
vn 0.0000 -0.9890 -0.1477
vn 0.0000 1.0000 0.0025
vn 0.0000 0.9938 -0.1112
vn 0.0000 0.9935 0.1136
vn 0.0000 0.3414 -0.9399
vn 0.0000 0.6418 -0.7669
vn 0.0000 0.9852 0.1717
vn 0.0000 0.9921 0.1257
vn 0.0000 0.9924 -0.1232
vn 0.0000 0.9890 -0.1477
vn 0.0000 0.9852 -0.1717
vn 0.0000 0.6418 0.7669
vn 0.0000 0.0000 -1.0000
vn 0.0000 0.9890 0.1477
usemtl Fence_w
s 1
f 1/1/1 2/2/1 3/3/1
f 4/4/2 5/5/2 6/6/2
f 7/7/1 3/3/1 2/2/1
f 9/8/1 10/9/1 11/10/1
f 5/5/2 13/11/2 6/6/2
f 14/12/2 15/13/2 16/14/2
f 17/15/1 11/10/1 10/9/1
f 18/16/3 20/17/4 19/18/3
f 22/19/5 24/20/6 21/21/5
f 26/22/7 21/21/5 25/23/7
f 28/24/8 25/23/7 27/25/8
f 30/26/9 27/25/8 29/27/9
f 32/28/7 34/29/5 31/30/7
f 36/31/10 38/32/11 35/33/11
f 39/34/12 37/35/10 36/31/10
f 41/36/2 43/37/2 44/38/2
f 33/39/1 45/40/1 46/41/1
f 42/42/2 47/43/2 43/37/2
f 29/44/2 40/45/2 48/46/2
f 23/47/1 35/33/1 49/48/1
f 24/49/2 38/50/2 21/51/2
f 22/52/1 36/31/1 35/33/1
f 30/53/1 39/34/1 28/54/1
f 21/51/2 37/55/2 25/56/2
f 9/8/13 16/57/14 10/58/14
f 52/59/9 42/60/8 41/61/9
f 33/62/5 55/63/6 34/29/5
f 57/64/15 43/65/16 56/66/16
f 53/67/8 31/30/7 42/60/8
f 45/68/10 58/69/17 46/70/17
f 56/66/16 47/71/10 45/68/10
f 55/72/2 58/73/2 34/74/2
f 34/74/2 47/43/2 31/75/2
f 28/54/1 36/31/1 26/76/1
f 54/77/1 46/41/1 60/78/1
f 52/79/1 56/80/1 53/81/1
f 27/82/2 37/55/2 40/45/2
f 53/81/1 45/40/1 32/83/1
f 15/13/2 20/17/2 16/14/2
f 35/33/11 50/84/18 49/48/18
f 46/70/17 59/85/19 60/86/19
f 13/11/4 2/87/20 6/88/20
f 8/89/3 13/11/4 12/90/3
f 1/1/13 6/91/14 2/92/14
f 5/93/21 1/1/13 3/3/21
f 20/17/4 10/94/20 16/95/20
f 51/96/22 40/97/12 39/34/12
f 15/98/21 9/8/13 11/10/21
f 7/7/1 8/99/1 3/3/1
f 5/5/2 12/90/2 13/11/2
f 17/15/1 18/100/1 11/10/1
f 18/16/3 17/101/4 20/17/4
f 22/19/5 23/102/6 24/20/6
f 26/22/7 22/19/5 21/21/5
f 28/24/8 26/22/7 25/23/7
f 30/26/9 28/24/8 27/25/8
f 32/28/7 33/62/5 34/29/5
f 36/31/10 37/35/10 38/32/11
f 39/34/12 40/97/12 37/35/10
f 41/36/2 42/42/2 43/37/2
f 33/39/1 32/83/1 45/40/1
f 42/42/2 31/75/2 47/43/2
f 29/44/2 27/82/2 40/45/2
f 23/47/1 22/52/1 35/33/1
f 24/49/2 50/103/2 38/50/2
f 22/52/1 26/76/1 36/31/1
f 30/53/1 51/96/1 39/34/1
f 21/51/2 38/50/2 37/55/2
f 9/8/13 14/104/13 16/57/14
f 52/59/9 53/67/8 42/60/8
f 33/62/5 54/105/6 55/63/6
f 57/64/15 44/106/15 43/65/16
f 53/67/8 32/28/7 31/30/7
f 45/68/10 47/71/10 58/69/17
f 56/66/16 43/65/16 47/71/10
f 55/72/2 59/107/2 58/73/2
f 34/74/2 58/73/2 47/43/2
f 28/54/1 39/34/1 36/31/1
f 54/77/1 33/39/1 46/41/1
f 52/79/1 57/108/1 56/80/1
f 27/82/2 25/56/2 37/55/2
f 53/81/1 56/80/1 45/40/1
f 15/13/2 19/18/2 20/17/2
f 35/33/11 38/32/11 50/84/18
f 46/70/17 58/69/17 59/85/19
f 13/11/4 7/109/4 2/87/20
f 8/89/3 7/109/4 13/11/4
f 1/1/13 4/110/13 6/91/14
f 5/93/21 4/110/13 1/1/13
f 20/17/4 17/101/4 10/94/20
f 51/96/22 48/111/22 40/97/12
f 15/98/21 14/104/13 9/8/13
