# Blender v3.2.1 OBJ File: ''
# www.blender.org
mtllib grass.mtl
o Plant_w_Plant_w_0
v 0.037176 0.036273 0.013386
v 0.070276 0.026814 -0.000065
v 0.028348 -0.005618 -0.000065
v 0.008489 0.024787 0.040298
v 0.061450 0.024787 -0.000065
v 0.103377 0.040327 -0.000065
v 0.107790 0.019381 -0.040424
v 0.065863 0.007220 -0.035942
v 0.143097 0.038300 -0.000065
v 0.147511 0.020057 -0.031460
v 0.015108 0.024787 0.031330
v 0.046002 0.007220 0.058239
v 0.028348 -0.011023 -0.000065
v -0.022406 0.016003 0.013386
v -0.031233 0.030192 -0.018005
v -0.059920 0.028841 -0.026974
v -0.073160 0.013976 -0.000065
v -0.046680 0.013300 0.017876
v -0.011372 0.051813 0.004421
v 0.015108 0.026138 0.004421
v 0.012902 0.019381 -0.031460
v -0.015786 0.042354 -0.035942
v 0.006281 0.015327 0.035812
v 0.028348 -0.011699 0.004421
v 0.061450 0.016003 0.035812
v 0.103377 0.028841 0.040298
v -0.042266 0.062623 -0.000065
v -0.044473 0.055191 -0.031460
v -0.029026 0.038300 0.103085
v -0.062126 0.028841 0.085144
v -0.053300 0.013300 0.138962
v 0.001868 0.020057 0.125504
v 0.037176 0.040327 -0.076305
v 0.046002 0.038300 -0.112183
v 0.010695 0.020057 -0.121155
v -0.006959 0.019381 -0.085270
v -0.051093 0.050461 0.031330
v -0.022406 0.038300 0.040298
v 0.083517 0.028841 -0.103214
v 0.057036 0.013301 -0.152550
v -0.017992 0.020733 -0.053879
v -0.051093 0.020733 -0.058369
v 0.052622 0.063299 0.040298
v 0.092343 0.051813 0.026844
v 0.026143 -0.011023 -0.000065
v -0.000339 0.018030 -0.004547
v -0.013579 0.003841 0.026844
v 0.028348 -0.011023 0.004421
v 0.012902 0.010598 -0.035942
v 0.068069 0.074109 0.071690
v 0.101171 0.063974 0.058239
v -0.006959 0.040327 0.071690
v -0.048886 0.028841 0.044781
v 0.143097 0.028841 0.031330
v 0.043796 0.062623 0.094109
v 0.092343 0.067353 0.107567
v 0.085723 0.028841 -0.067337
v 0.030555 0.024787 -0.031460
v 0.070276 0.016003 -0.026974
v -0.081987 0.057894 -0.004547
v 0.019522 0.048434 0.071690
v -0.009166 0.007220 -0.040424
v 0.026143 -0.011023 0.004421
v 0.030555 0.019381 0.098602
v -0.093020 0.008571 -0.044910
v 0.187232 0.013300 0.004421
vt 0.721926 0.286906
vt 0.984750 0.024316
vt 0.954288 0.482709
vt 0.479410 0.526806
vt 0.519672 0.059406
vt 0.721926 0.286906
vt 0.273142 0.730094
vt 0.227921 0.276964
vt 0.721926 0.286906
vt 0.984750 0.024316
vt 0.954288 0.482709
vt 0.479410 0.526806
vt 0.058609 0.543064
vt 0.227921 0.276964
vt 0.721926 0.286906
vt 0.735386 0.771150
vt 0.479410 0.526806
vt 0.984750 0.024316
vt 0.954288 0.482709
vt 0.735386 0.771150
vt 0.465478 0.939348
vt 0.273142 0.730094
vt 0.273142 0.730094
vt 0.017638 0.982392
vt 0.058609 0.543064
vt 0.479410 0.526806
vt 0.058609 0.543064
vt 0.227921 0.276964
vt 0.058609 0.543064
vt 0.227921 0.276964
vt 0.273142 0.730094
vt 0.017638 0.982392
vt 0.465478 0.939348
vt 0.273142 0.730094
vt 0.479410 0.526806
vt 0.519672 0.059406
vt 0.984750 0.024316
vt 0.954288 0.482709
vt 0.721926 0.286906
vt 0.984750 0.024316
vt 0.954288 0.482709
vt 0.058609 0.543064
vt 0.227921 0.276964
vt 0.479410 0.526806
vt 0.735386 0.771150
vt 0.465478 0.939348
vt 0.273142 0.730094
vt 0.017638 0.982392
vt 0.465478 0.939348
vt 0.954288 0.482709
vt 0.721926 0.286906
vt 0.017638 0.982392
vt 0.735386 0.771150
vt 0.519672 0.059406
vt 0.984750 0.024316
vt 0.465478 0.939348
vt 0.227921 0.276964
vt 0.017638 0.982392
vt 0.735386 0.771150
vt 0.465478 0.939348
vt 0.017638 0.982392
vt 0.058609 0.543064
vt 0.519672 0.059406
vt 0.519672 0.059406
vt 0.519672 0.059406
vt 0.735386 0.771150
vn -0.4902 0.5806 -0.6501
vn -0.5470 0.0367 -0.8363
vn -0.7090 0.3919 -0.5862
vn -0.1504 0.9834 -0.1012
vn -0.6399 0.6508 -0.4087
vn -0.5817 0.8059 -0.1101
vn 0.3235 0.9365 -0.1357
vn -0.1122 0.8713 -0.4778
vn 0.2934 0.8414 -0.4538
vn 0.5385 0.3284 -0.7760
vn 0.1971 0.6845 -0.7019
vn 0.1061 0.9846 0.1389
vn -0.5192 0.8333 0.1895
vn -0.0387 0.9115 0.4095
vn 0.8494 0.5231 0.0701
vn 0.5151 0.8252 -0.2318
vn 0.5147 0.8521 0.0947
vn 0.9944 0.0135 0.1052
vn 0.8994 0.4185 -0.1264
vn -0.1334 0.9553 0.2637
vn -0.0441 0.9723 -0.2296
vn 0.0498 0.9966 0.0660
vn -0.0191 0.9512 0.3079
vn -0.3223 0.6778 0.6608
vn 0.0693 0.8235 0.5631
vn -0.1225 0.9869 0.1051
vn -0.2595 0.7990 -0.5425
vn -0.4286 0.9032 0.0242
vn -0.1236 0.9380 0.3237
vn 0.4345 0.7908 0.4310
vn 0.0364 0.9580 -0.2844
vn 0.1097 0.6234 -0.7742
vn -0.3103 0.8928 -0.3266
vn -0.2854 0.9552 0.0782
vn -0.2631 0.8797 -0.3962
vn -0.2330 0.4022 -0.8854
vn -0.8989 0.4239 -0.1110
vn -0.6659 0.7231 0.1836
vn 0.4582 0.8588 0.2289
vn 0.7824 0.4929 0.3805
vn 0.6538 0.7525 0.0794
vn 0.2763 0.9600 -0.0447
vn 0.0576 0.8387 -0.5416
vn 0.1546 0.9864 -0.0563
vn -0.1157 0.9652 -0.2347
vn 0.4251 0.8646 0.2679
vn -0.1271 0.9919 -0.0087
vn 0.2233 0.8953 0.3855
vn 0.2984 0.8617 -0.4104
vn 0.0764 0.7216 0.6881
vn -0.1709 0.8174 0.5502
vn -0.4344 0.9005 0.0188
vn -0.5494 0.8126 -0.1944
vn 0.4600 0.7181 0.5222
vn -0.2002 0.4289 0.8809
vn -0.3905 0.8830 0.2603
vn 0.4171 0.9008 0.1207
vn -0.6826 0.7059 -0.1889
vn 0.2020 0.9629 -0.1792
vn -0.2145 0.9460 0.2432
vn 0.7386 0.6726 -0.0450
vn 0.4627 0.7857 -0.4107
vn 0.6732 0.6161 -0.4089
vn 0.8607 0.3474 0.3721
vn -0.4350 0.6868 0.5823
vn 0.1970 0.9651 0.1727
usemtl Plant_w
s 1
f 1/1/1 3/2/2 4/3/3
f 6/4/4 8/5/5 5/6/6
f 9/7/7 7/8/8 6/4/4
f 11/9/9 13/10/10 14/11/11
f 15/12/12 17/13/13 18/14/14
f 20/15/15 22/16/16 19/17/17
f 20/15/15 24/18/18 21/19/19
f 5/6/6 26/20/20 6/4/4
f 19/17/17 28/21/21 27/22/22
f 29/23/23 31/24/24 32/25/25
f 33/26/26 35/27/27 36/28/28
f 19/17/17 37/29/29 38/30/30
f 34/31/31 40/32/32 35/27/27
f 15/12/12 42/33/33 16/34/34
f 43/35/35 2/36/36 1/1/1
f 5/6/6 45/37/37 25/38/38
f 46/39/39 48/40/40 49/41/41
f 43/35/35 51/42/42 44/43/43
f 52/44/44 14/11/11 53/45/45
f 6/4/4 54/46/46 9/7/7
f 50/47/47 56/48/48 51/42/42
f 33/26/26 39/49/49 34/31/31
f 59/50/50 33/26/26 58/51/51
f 27/22/22 60/52/52 37/29/29
f 43/35/35 4/3/3 61/53/53
f 46/39/39 18/14/14 47/54/54
f 58/51/51 63/55/55 59/50/50
f 52/44/44 30/56/56 29/23/23
f 52/44/44 32/25/25 64/57/57
f 16/34/34 65/58/58 17/13/13
f 15/12/12 49/41/41 41/59/59
f 43/35/35 55/60/60 50/47/47
f 9/7/7 66/61/61 10/62/62
f 52/44/44 12/63/63 11/9/9
f 19/17/17 23/64/64 20/15/15
f 58/51/51 36/28/28 62/65/65
f 1/1/1 2/36/36 3/2/2
f 6/4/4 7/8/8 8/5/5
f 9/7/7 10/62/62 7/8/8
f 11/9/9 12/63/63 13/10/10
f 15/12/12 16/34/34 17/13/13
f 20/15/15 21/19/19 22/16/16
f 20/15/15 23/64/64 24/18/18
f 5/6/6 25/38/38 26/20/20
f 19/17/17 22/16/16 28/21/21
f 29/23/23 30/56/56 31/24/24
f 33/26/26 34/31/31 35/27/27
f 19/17/17 27/22/22 37/29/29
f 34/31/31 39/49/49 40/32/32
f 15/12/12 41/59/59 42/33/33
f 43/35/35 44/43/43 2/36/36
f 5/6/6 8/5/5 45/37/37
f 46/39/39 47/54/54 48/40/40
f 43/35/35 50/47/47 51/42/42
f 52/44/44 11/9/9 14/11/11
f 6/4/4 26/20/20 54/46/46
f 50/47/47 55/60/60 56/48/48
f 33/26/26 57/66/66 39/49/49
f 59/50/50 57/66/66 33/26/26
f 27/22/22 28/21/21 60/52/52
f 43/35/35 1/1/1 4/3/3
f 46/39/39 15/12/12 18/14/14
f 58/51/51 62/65/65 63/55/55
f 52/44/44 53/45/45 30/56/56
f 52/44/44 29/23/23 32/25/25
f 16/34/34 42/33/33 65/58/58
f 15/12/12 46/39/39 49/41/41
f 43/35/35 61/53/53 55/60/60
f 9/7/7 54/46/46 66/61/61
f 52/44/44 64/57/57 12/63/63
f 19/17/17 38/30/30 23/64/64
f 58/51/51 33/26/26 36/28/28
