# Blender v3.2.1 OBJ File: ''
# www.blender.org
mtllib lamp.mtl
o Street_light_w_Street_light_w_0.001
v -0.475161 0.180874 -0.313873
v -0.493895 -0.047910 -0.332733
v -0.493895 -0.047910 0.297729
v -0.475161 0.180874 0.278870
v -0.345806 0.271801 -0.184937
v -0.345806 0.271801 0.149963
v 0.027979 1.546247 -0.164490
v -0.117432 2.770830 -0.140930
v -0.117432 2.770830 0.104370
v 0.027979 1.546247 0.129517
v -0.266409 1.546247 0.129517
v -0.362759 2.770830 0.107483
v -0.362759 2.770830 -0.117340
v -0.266409 1.546247 -0.164490
v 0.118082 0.180874 -0.313873
v 0.136818 -0.047910 -0.332733
v -1.689308 2.273664 0.296173
v -1.605450 2.329393 0.212830
v -1.605450 2.329393 -0.247803
v -1.689308 2.273664 -0.331177
v -0.011271 0.271801 -0.184937
v -0.011271 0.271801 0.149963
v -0.695509 2.907220 -0.112610
v -0.695509 2.720966 -0.112610
v -1.542110 2.718033 -0.158234
v -1.542110 2.954151 -0.158234
v 0.118082 0.180874 0.278870
v 0.136818 -0.047910 0.297729
v -0.695509 2.907220 0.109070
v -0.695509 2.720966 0.109070
v -0.045172 2.759097 0.120087
v -0.064795 2.943885 0.120087
v -1.117474 2.248732 -0.276123
v -1.195978 1.816095 -0.197510
v -1.554604 1.816095 -0.197510
v -1.633106 2.248732 -0.276123
v -0.794533 2.729766 -0.111023
v -0.291389 2.036080 -0.122040
v -0.247677 1.562379 -0.122040
v -1.096956 2.729766 -0.111023
v -0.794533 2.729766 0.076080
v -0.291389 2.036080 0.087036
v -0.064795 2.943885 -0.156647
v -0.045172 2.759097 -0.156647
v -1.542110 2.718033 0.123230
v -1.294109 2.728299 -0.100037
v -1.294109 2.544979 -0.100037
v -1.456470 2.544979 -0.100037
v -1.456470 2.728299 -0.100037
v -1.542110 2.954151 0.123230
v -1.508213 2.552311 0.115387
v -1.242367 2.552311 0.115387
v -1.242367 2.552311 -0.150330
v -1.508213 2.552311 -0.150330
v -1.294109 2.728299 0.065063
v -1.294109 2.544979 0.065063
v -1.456470 2.728299 0.065063
v -1.456470 2.544979 0.065063
v -0.247677 1.562379 0.087036
v -1.096956 2.729766 0.076080
v -1.145126 2.329393 0.212830
v -1.195978 1.816095 0.160950
v -1.375288 1.672372 -0.016693
v -1.554604 1.816095 0.160950
v -1.633106 2.248732 0.239563
v -1.117474 2.248732 0.239563
v -1.061272 2.273664 0.296173
v -1.061272 2.273664 -0.331177
v -1.145126 2.329393 -0.247803
vt 0.329959 0.009532
vt 0.222135 0.061133
vt 0.329959 0.061133
vt 0.329959 0.089813
vt 0.222135 0.089813
vt 0.010442 0.398935
vt 0.113833 0.698818
vt 0.113833 0.398935
vt 0.222135 0.398935
vt 0.329959 0.698818
vt 0.329959 0.398935
vt 0.434428 0.061133
vt 0.806899 0.359335
vt 0.861170 0.690898
vt 0.806899 0.742138
vt 0.434308 0.089813
vt 0.434308 0.698818
vt 0.434308 0.398935
vt 0.010442 0.089813
vt 0.756701 0.086093
vt 0.448206 0.009412
vt 0.448206 0.086093
vt 0.113833 0.009532
vt 0.010442 0.061133
vt 0.113833 0.061133
vt 0.113833 0.089813
vt 0.756701 0.179814
vt 0.991756 0.255054
vt 0.991756 0.179814
vt 0.507988 0.654418
vt 0.779943 0.384415
vt 0.779943 0.716338
vt 0.505592 0.907020
vt 0.010921 0.800219
vt 0.102571 0.907020
vt 0.505592 0.989100
vt 0.102571 0.989100
vt 0.991756 0.086093
vt 0.756701 0.347935
vt 0.756701 0.255054
vt 0.448206 0.255054
vt 0.795637 0.992340
vt 0.988641 0.762298
vt 0.795637 0.762298
vt 0.991756 0.009412
vt 0.448206 0.179814
vt 0.931016 0.581097
vt 0.984688 0.520976
vt 0.984688 0.581097
vt 0.222135 0.009532
vt 0.781021 0.868739
vt 0.590772 0.990300
vt 0.781021 0.990300
vt 0.795637 0.992340
vt 0.988641 0.762298
vt 0.795637 0.762298
vt 0.795637 0.992340
vt 0.988641 0.762298
vt 0.795637 0.762298
vt 0.689251 0.714658
vt 0.010921 0.714658
vt 0.990319 0.469496
vt 0.861170 0.690898
vt 0.861170 0.410576
vt 0.507988 0.445496
vt 0.507988 0.654418
vt 0.446049 0.550017
vt 0.507988 0.654418
vt 0.779943 0.384415
vt 0.779943 0.716338
vt 0.507988 0.654418
vt 0.779943 0.384415
vt 0.779943 0.716338
vt 0.507988 0.445496
vt 0.779943 0.384415
vt 0.779943 0.716338
vt 0.781021 0.868739
vt 0.590772 0.990300
vt 0.781021 0.990300
vt 0.010921 0.800219
vt 0.505592 0.907020
vt 0.102571 0.907020
vt 0.806899 0.359335
vt 0.806899 0.359335
vt 0.861170 0.410576
vt 0.806899 0.742138
vt 0.990319 0.469496
vt 0.861170 0.410576
vt 0.806899 0.359335
vt 0.990319 0.631977
vt 0.861170 0.690898
vt 0.861170 0.410576
vt 0.806899 0.742138
vt 0.806899 0.742138
vt 0.990319 0.469496
vt 0.861170 0.690898
vt 0.795637 0.992340
vt 0.988641 0.762298
vt 0.795637 0.762298
vt 0.010442 0.698818
vt 0.222135 0.698818
vt 0.434428 0.009532
vt 0.756701 0.009412
vt 0.010442 0.009532
vt 0.507988 0.445496
vt 0.689251 0.800219
vt 0.991756 0.347935
vt 0.448206 0.347935
vt 0.988641 0.992340
vt 0.931016 0.520976
vt 0.590772 0.868739
vt 0.988641 0.992340
vt 0.988641 0.992340
vt 0.990319 0.631977
vt 0.507988 0.445496
vt 0.590772 0.868739
vt 0.689251 0.800219
vt 0.990319 0.631977
vt 0.990319 0.469496
vt 0.990319 0.631977
vt 0.988641 0.992340
vn -0.9967 0.0816 0.0000
vn -0.5751 0.8181 0.0000
vn 0.9991 0.0435 -0.0000
vn 0.9930 0.1179 0.0000
vn -1.0000 -0.0082 0.0000
vn -0.9969 -0.0784 0.0000
vn 0.0000 0.0822 -0.9966
vn -0.5535 0.8329 0.0000
vn -0.7670 0.6416 -0.0000
vn -0.0079 0.0177 -0.9998
vn 0.0000 0.0160 -0.9999
vn -0.0865 0.0278 -0.9959
vn -0.0029 0.0170 -0.9999
vn 0.0114 0.0192 0.9998
vn 0.0011 0.0182 0.9998
vn 0.0005 0.0182 0.9998
vn 0.0000 0.8172 -0.5763
vn 0.9995 -0.0308 -0.0000
vn -0.0071 -0.0006 -1.0000
vn 0.0538 0.0000 -0.9986
vn 0.9967 0.0816 0.0000
vn 0.0000 0.8172 0.5764
vn -0.0002 -0.0002 1.0000
vn -0.0173 -0.0015 0.9998
vn -0.0174 -0.0018 0.9998
vn 0.0000 -0.1788 -0.9839
vn -0.9981 0.0622 0.0000
vn -0.0116 0.0023 -0.9999
vn -0.0017 0.0138 -0.9999
vn 0.0020 0.0180 -0.9998
vn 0.8095 0.5871 0.0000
vn -0.0013 1.0000 0.0000
vn -0.0580 0.9983 0.0000
vn 0.0311 -0.9995 0.0000
vn 0.0585 -0.9983 0.0000
vn 0.0310 -0.9995 0.0000
vn 0.0000 0.0160 0.9999
vn 0.0035 -1.0000 0.0000
vn 0.0000 0.0000 -1.0000
vn -0.0689 -0.0060 -0.9976
vn -0.0692 -0.0074 -0.9976
vn 0.0553 0.9985 0.0000
vn -0.0014 1.0000 0.0000
vn 0.0000 1.0000 0.0000
vn 0.0167 0.0000 0.9999
vn 0.0000 0.0822 0.9966
vn -1.0000 0.0000 0.0000
vn 1.0000 0.0000 0.0000
vn 0.0000 0.0000 1.0000
vn -0.8086 -0.5883 0.0000
vn 0.0000 0.4005 0.9163
vn 0.0000 0.6408 0.7677
vn -0.0000 0.6417 0.7669
vn 0.8591 -0.5119 -0.0000
vn 0.8593 -0.5114 0.0000
vn 0.6254 -0.7803 0.0000
vn -0.8593 -0.5114 -0.0000
vn -0.9839 -0.1785 -0.0000
vn 0.0000 -0.7774 0.6290
vn 0.9839 -0.1785 -0.0000
vn -0.8591 -0.5119 0.0000
vn -0.6254 -0.7803 0.0000
vn 0.0000 -0.1788 0.9839
vn 0.9944 0.1056 0.0000
vn -0.0068 0.0101 0.9999
vn -0.0166 -0.0013 0.9999
vn -0.0032 0.0143 0.9999
vn 0.0000 -0.9152 0.4031
vn 0.0000 -0.9152 0.4030
vn 0.0000 -0.9109 -0.4125
vn -0.4055 -0.9141 0.0000
vn 0.0000 0.6410 -0.7676
vn 0.0000 0.8314 -0.5557
vn -0.9166 0.3998 0.0000
vn -0.7663 0.6425 0.0000
vn 0.4055 -0.9141 0.0000
vn 0.0000 0.4006 -0.9162
vn -0.0000 0.6419 -0.7668
vn 0.7676 0.6409 -0.0000
vn 0.5535 0.8328 0.0000
vn 0.5751 0.8181 0.0000
vn 0.0000 0.8313 0.5559
vn 0.9166 0.3998 0.0000
vn 0.7658 0.6430 0.0000
vn 0.0000 -0.7828 -0.6222
vn -0.1001 0.0294 -0.9945
vn 0.0132 0.0189 0.9997
vn -0.0070 -0.0001 -1.0000
vn 0.0002 0.0000 1.0000
vn -0.0129 0.0008 -0.9999
vn -0.0179 -0.0029 0.9998
g Street_light_w_Street_light_w_0.001_Street_light_w_Street_light_w_0.001_Street_light_w.001
usemtl Street_light_w.001
s 1
f 2/1/1 4/2/1 1/3/1
s 2
f 5/4/2 4/2/2 6/5/2
s 1
f 7/6/3 9/7/4 10/8/3
f 11/9/5 13/10/6 14/11/5
s 2
f 15/12/7 2/1/7 1/3/7
s 1
f 17/13/8 19/14/9 20/15/8
s 2
f 14/11/10 21/16/11 5/4/11
f 14/11/10 8/17/12 7/18/13
f 9/7/14 11/9/15 10/8/16
s 1
f 15/12/17 5/4/17 21/16/17
f 10/8/3 21/19/18 7/6/3
f 23/20/19 25/21/20 26/22/20
f 28/23/21 15/24/21 27/25/21
f 6/5/22 27/25/22 22/26/22
f 29/27/23 31/28/24 32/29/25
f 34/30/26 36/31/26 33/32/26
f 11/9/5 5/4/27 6/5/27
f 38/33/28 40/34/29 37/35/30
s 2
f 42/36/31 37/35/31 41/37/31
f 23/20/32 32/29/33 43/38/33
f 24/39/34 31/28/35 30/40/36
f 11/9/15 22/26/37 10/8/16
f 45/41/38 24/39/34 30/40/36
s 1
f 47/42/39 49/43/39 46/44/39
f 44/45/40 23/20/19 43/38/41
s 2
f 23/20/32 50/46/42 29/27/43
f 52/47/44 54/48/44 51/49/44
s 1
f 45/41/45 29/27/23 50/46/45
s 2
f 3/50/46 27/25/46 4/2/46
s 4
f 25/51/47 50/52/47 26/53/47
s 2
f 56/54/48 46/55/48 55/56/48
s 1
f 58/57/49 55/58/49 57/59/49
s 2
f 40/34/50 59/60/50 60/61/50
s 4
f 52/62/51 18/63/52 61/64/53
s 2
f 34/65/54 62/66/55 63/67/56
f 35/68/57 65/69/58 36/70/58
s 1
f 62/66/59 64/71/59 63/67/59
s 2
f 62/66/55 33/72/60 66/73/60
f 64/74/61 35/68/57 63/67/62
s 4
f 64/71/63 66/75/63 65/76/63
f 31/77/64 43/78/64 32/79/64
s 1
f 60/80/65 42/81/66 41/82/67
f 67/83/68 65/76/69 66/75/68
s 2
f 20/84/70 33/32/70 36/31/70
s 4
f 65/69/71 20/15/71 36/70/71
f 19/85/72 68/86/73 20/84/73
s 1
f 51/87/74 19/14/9 18/88/75
s 4
f 68/89/76 66/73/76 33/72/76
f 19/85/72 53/90/77 69/91/78
s 1
f 69/92/79 67/93/80 68/89/80
s 2
f 27/25/81 21/19/81 22/26/81
s 4
f 67/83/82 18/63/52 17/94/82
s 1
f 53/95/83 61/96/84 69/92/79
s 4
f 35/68/85 34/65/85 63/67/85
s 2
f 48/97/47 57/98/47 49/99/47
s 1
f 2/1/1 3/50/1 4/2/1
s 2
f 5/4/2 1/3/2 4/2/2
s 1
f 7/6/3 8/100/4 9/7/4
f 11/9/5 12/101/6 13/10/6
s 2
f 15/12/7 16/102/7 2/1/7
s 1
f 17/13/8 18/88/75 19/14/9
s 2
f 14/11/10 7/18/13 21/16/11
f 14/11/10 13/10/86 8/17/12
f 9/7/14 12/101/87 11/9/15
s 1
f 15/12/17 1/3/17 5/4/17
f 10/8/3 22/26/18 21/19/18
f 23/20/19 24/103/88 25/21/20
f 28/23/21 16/104/21 15/24/21
f 6/5/22 4/2/22 27/25/22
f 29/27/23 30/40/89 31/28/24
f 34/30/26 35/105/26 36/31/26
f 11/9/5 14/11/5 5/4/27
f 38/33/28 39/106/90 40/34/29
s 2
f 42/36/31 38/33/31 37/35/31
f 23/20/32 29/27/43 32/29/33
f 24/39/34 44/107/35 31/28/35
f 11/9/15 6/5/37 22/26/37
f 45/41/38 25/108/38 24/39/34
s 1
f 47/42/39 48/109/39 49/43/39
f 44/45/40 24/103/88 23/20/19
s 2
f 23/20/32 26/22/42 50/46/42
f 52/47/44 53/110/44 54/48/44
s 1
f 45/41/45 30/40/89 29/27/23
s 2
f 3/50/46 28/23/46 27/25/46
s 4
f 25/51/47 45/111/47 50/52/47
s 2
f 56/54/48 47/112/48 46/55/48
s 1
f 58/57/49 56/113/49 55/58/49
s 2
f 40/34/50 39/106/50 59/60/50
s 4
f 52/62/51 51/114/51 18/63/52
s 2
f 35/68/57 64/74/61 65/69/58
f 62/66/55 34/65/54 33/72/60
s 4
f 64/71/63 62/115/63 66/75/63
f 31/77/64 44/116/64 43/78/64
s 1
f 60/80/65 59/117/91 42/81/66
f 67/83/68 17/94/69 65/76/69
s 2
f 20/84/70 68/86/70 33/32/70
s 4
f 65/69/71 17/13/71 20/15/71
f 19/85/72 69/91/78 68/86/73
s 1
f 51/87/74 54/118/74 19/14/9
s 4
f 68/89/76 67/93/76 66/73/76
f 19/85/72 54/119/77 53/90/77
s 1
f 69/92/79 61/96/84 67/93/80
s 2
f 27/25/81 15/24/81 21/19/81
s 4
f 67/83/82 61/64/53 18/63/52
s 1
f 53/95/83 52/120/83 61/96/84
s 2
f 48/97/47 58/121/47 57/98/47
