# Blender 3.2.2
# www.blender.org
mtllib stone_fence.mtl
o Stone fence w_Stone fence w_0
v -0.467491 1.653601 1.762421
v -0.250168 1.653601 1.762421
v -0.467491 2.000057 1.762421
v 0.732506 2.000057 1.762421
v 0.515186 1.653601 1.762421
v 0.732506 1.653601 1.762421
v 0.732506 1.653600 -2.237579
v 0.732506 2.000056 -2.237579
v 0.515186 1.653600 -2.237579
v -0.467491 2.000056 -2.237579
v -0.250168 1.653600 -2.237579
v -0.467491 1.653600 -2.237579
v -0.467491 2.000057 1.762421
v -0.467491 2.000056 -2.237579
v 0.732506 2.000057 1.762421
v 0.732506 2.000056 -2.237579
v -0.250168 0.000061 1.762421
v -0.250168 0.000060 -2.237579
v -0.250168 1.653601 1.762421
v -0.250168 1.653600 -2.237579
v -0.250168 1.653601 1.762421
v -0.250168 1.653600 -2.237579
v -0.467491 1.653601 1.762421
v -0.467491 1.653600 -2.237579
v -0.467491 1.653601 1.762421
v -0.467491 1.653600 -2.237579
v -0.467491 2.000057 1.762421
v -0.467491 2.000056 -2.237579
v 0.515186 0.000061 1.762421
v -0.250168 0.000061 1.762421
v 0.515186 1.653601 1.762421
v -0.250168 1.653601 1.762421
v 0.515186 0.000060 -2.237579
v 0.515186 0.000061 1.762421
v 0.515186 1.653600 -2.237579
v 0.515186 1.653601 1.762421
v 0.515186 1.653600 -2.237579
v 0.515186 1.653601 1.762421
v 0.732506 1.653600 -2.237579
v 0.732506 1.653601 1.762421
v 0.732506 1.653600 -2.237579
v 0.732506 1.653601 1.762421
v 0.732506 2.000056 -2.237579
v 0.732506 2.000057 1.762421
v -0.250168 0.000060 -2.237579
v 0.515186 0.000060 -2.237579
v -0.250168 1.653600 -2.237579
v 0.515186 1.653600 -2.237579
vn -0.0000 0.0022 1.0000
vn -0.0000 0.0022 -1.0000
vn -0.0000 1.0000 -0.0000
vn -1.0000 -0.0022 -0.0000
vn -0.0000 -1.0000 -0.0000
vn -1.0000 0.0022 -0.0000
vn 1.0000 -0.0022 -0.0000
vn 1.0000 0.0022 -0.0000
vt 0.202475 0.604163
vt 0.269899 0.604163
vt 0.202475 0.710427
vt 0.585782 0.710427
vt 0.526472 0.604163
vt 0.585782 0.604163
vt 0.202475 0.604163
vt 0.202475 0.710427
vt 0.269899 0.604163
vt 0.585782 0.710427
vt 0.526472 0.604163
vt 0.585782 0.604163
vt 0.988063 0.710783
vt 0.010582 0.710783
vt 0.988063 0.985426
vt 0.010582 0.985426
vt 0.010582 0.010730
vt 0.988063 0.010730
vt 0.010582 0.500042
vt 0.988063 0.500042
vt 0.988063 0.500042
vt 0.010582 0.500042
vt 0.988063 0.607019
vt 0.010582 0.607019
vt 0.988063 0.607019
vt 0.010582 0.607019
vt 0.988063 0.710783
vt 0.010582 0.710783
vt 0.237559 0.010849
vt 0.010702 0.010849
vt 0.237559 0.499923
vt 0.010702 0.499923
vt 0.988063 0.010730
vt 0.010582 0.010730
vt 0.988063 0.500042
vt 0.010582 0.500042
vt 0.010582 0.500042
vt 0.988063 0.500042
vt 0.010582 0.607019
vt 0.988063 0.607019
vt 0.010582 0.607019
vt 0.988063 0.607019
vt 0.010582 0.710783
vt 0.988063 0.710783
vt 0.010702 0.010849
vt 0.237559 0.010849
vt 0.010702 0.499923
vt 0.237559 0.499923
s 1
usemtl Stone_fence_w.001
f 1/1/1 2/2/1 3/3/1
f 3/3/1 2/2/1 4/4/1
f 2/2/1 5/5/1 4/4/1
f 4/4/1 5/5/1 6/6/1
f 7/7/2 9/9/2 8/8/2
f 8/8/2 9/9/2 10/10/2
f 9/9/2 11/11/2 10/10/2
f 10/10/2 11/11/2 12/12/2
f 13/13/3 15/15/3 14/14/3
f 14/14/3 15/15/3 16/16/3
f 17/17/4 19/19/4 18/18/4
f 18/18/4 19/19/4 20/20/4
f 21/21/5 23/23/5 22/22/5
f 22/22/5 23/23/5 24/24/5
f 25/25/6 27/27/6 26/26/6
f 26/26/6 27/27/6 28/28/6
f 29/29/1 31/31/1 30/30/1
f 30/30/1 31/31/1 32/32/1
f 33/33/7 35/35/7 34/34/7
f 34/34/7 35/35/7 36/36/7
f 37/37/5 39/39/5 38/38/5
f 38/38/5 39/39/5 40/40/5
f 41/41/8 43/43/8 42/42/8
f 42/42/8 43/43/8 44/44/8
f 45/45/2 47/47/2 46/46/2
f 46/46/2 47/47/2 48/48/2
