# Blender v3.2.1 OBJ File: ''
# www.blender.org
mtllib tree1.mtl
o Tree_1_w_Tree_1_w_0
v -0.164155 0.004503 0.024128
v -0.146492 0.080611 0.024128
v -0.125295 0.080611 -0.011841
v -0.132361 0.004503 -0.029827
v -0.082903 0.216517 0.055599
v -0.118230 0.216517 0.055599
v -0.125295 0.080611 0.060101
v -0.079370 0.080611 0.060101
v -0.072305 0.004503 0.078083
v -0.132361 0.004503 0.078083
v -0.079370 0.080611 -0.011841
v -0.072305 0.004503 -0.029827
v -0.001651 0.374168 -0.047810
v -0.065239 0.374168 -0.092773
v -0.086436 0.477457 -0.047810
v -0.047576 0.477457 -0.020832
v -0.065239 0.216517 0.024128
v -0.058174 0.080611 0.024128
v -0.040511 0.004503 0.024128
v -0.135894 0.216517 0.024128
v -0.118230 0.216517 -0.007343
v -0.065239 0.374168 0.150021
v -0.001651 0.374168 0.105061
v -0.047576 0.477457 0.069092
v -0.086436 0.477457 0.096066
v -0.082903 0.216517 -0.007343
v 0.023078 0.379604 0.028625
v -0.033445 0.482893 0.024128
v -0.252473 0.260007 0.024128
v -0.220679 0.260007 -0.065792
v -0.294866 0.173027 -0.124241
v -0.333726 0.167591 0.024128
v 0.093732 0.173027 0.163509
v 0.114929 0.183900 0.024128
v 0.054873 0.265443 0.024128
v 0.026611 0.265443 0.109558
v -0.061707 0.531819 0.064594
v -0.051109 0.531819 0.024128
v -0.150024 0.694907 0.015133
v -0.097034 0.531819 0.087074
v -0.008716 0.433967 0.096066
v 0.023078 0.439403 0.024128
v -0.146492 0.260007 0.163509
v -0.051109 0.260007 0.163509
v -0.086436 0.374168 0.105061
v -0.135894 0.368732 0.105061
v -0.210081 0.417658 -0.052307
v -0.224212 0.428531 0.024128
v -0.181819 0.520947 0.024128
v -0.171221 0.520947 -0.016335
v -0.142960 0.428531 0.136528
v -0.065239 0.423094 0.145527
v -0.135894 0.526383 0.087074
v -0.157090 0.292625 -0.146725
v -0.142960 0.368732 -0.092773
v -0.047576 0.292625 -0.155724
v -0.142960 0.423094 -0.088272
v -0.135894 0.526383 -0.038815
v -0.142960 0.368732 0.150021
v -0.206548 0.368732 0.105061
v -0.245408 0.292625 0.127541
v -0.157090 0.292624 0.194984
v -0.231277 0.363296 0.028625
v -0.174753 0.472021 0.069092
v -0.188884 0.472021 0.024128
v -0.171221 0.167591 0.248936
v -0.033445 0.183900 0.226452
v 0.083134 0.298061 0.024128
v 0.040742 0.303497 -0.079281
v -0.206548 0.368732 -0.047810
v -0.174753 0.472021 -0.020832
v -0.199482 0.417658 0.096066
v -0.171221 0.520947 0.064594
v -0.146492 0.260007 -0.119747
v -0.171221 0.167591 -0.200676
v -0.220679 0.260007 0.109558
v -0.270136 0.173027 0.150021
v -0.008716 0.433967 -0.043308
v -0.068772 0.450276 -0.088272
v -0.097034 0.531819 -0.038815
v -0.061707 0.531819 -0.016335
v 0.079602 0.183900 -0.115257
v 0.026611 0.265443 -0.065792
v -0.135894 0.477457 0.096066
v -0.044043 0.379604 -0.025326
v -0.026380 0.379604 0.024128
v -0.245408 0.287188 -0.079281
v -0.195950 0.363296 0.024128
v -0.178287 0.363296 -0.025326
v -0.044043 0.379604 0.073586
v -0.051109 0.260007 -0.119747
v -0.086436 0.374168 -0.056801
v -0.135894 0.477457 -0.047810
v -0.047576 0.298061 0.203976
v -0.291333 0.281752 0.024128
v -0.040511 0.189336 -0.205173
v -0.135894 0.368732 -0.056801
v -0.178287 0.363296 0.073586
v 0.040742 0.303497 0.127541
vt 0.884743 0.012383
vt 0.829173 0.108888
vt 0.829173 0.012383
vt 0.940433 0.299255
vt 0.995641 0.108888
vt 0.995641 0.299255
vt 0.940433 0.012383
vt 0.995641 0.012383
vt 0.773724 0.012383
vt 0.796144 0.455174
vt 0.687054 0.525752
vt 0.708872 0.416765
vt 0.718033 0.299255
vt 0.662825 0.108888
vt 0.718033 0.108888
vt 0.773724 0.108888
vt 0.718033 0.012383
vt 0.884743 0.299255
vt 0.884743 0.108888
vt 0.689103 0.891963
vt 0.622323 0.775054
vt 0.677290 0.779015
vt 0.829173 0.299255
vt 0.940433 0.108888
vt 0.773724 0.299255
vt 0.613764 0.411843
vt 0.579530 0.541476
vt 0.525045 0.442091
vt 0.140758 0.395639
vt 0.041310 0.237320
vt 0.157874 0.282691
vt 0.493825 0.720560
vt 0.560003 0.576044
vt 0.648360 0.666547
vt 0.440184 0.937575
vt 0.281189 0.992428
vt 0.414750 0.898325
vt 0.538064 0.902526
vt 0.449707 0.992428
vt 0.312771 0.130493
vt 0.404745 0.238400
vt 0.345920 0.244161
vt 0.281068 0.762931
vt 0.234780 0.860035
vt 0.201270 0.760170
vt 0.429817 0.788257
vt 0.377020 0.870118
vt 0.937299 0.477500
vt 0.858465 0.371873
vt 0.131235 0.798220
vt 0.189577 0.880320
vt 0.849062 0.797980
vt 0.823628 0.935174
vt 0.779027 0.862316
vt 0.889805 0.711318
vt 0.764321 0.728603
vt 0.785537 0.682391
vt 0.428130 0.009503
vt 0.424272 0.112969
vt 0.602433 0.312098
vt 0.893542 0.615534
vt 0.787465 0.631738
vt 0.331937 0.854874
vt 0.283479 0.851633
vt 0.065780 0.565722
vt 0.010090 0.409683
vt 0.148593 0.117890
vt 0.266844 0.009263
vt 0.077473 0.856074
vt 0.124725 0.950778
vt 0.026363 0.917170
vt 0.355563 0.631498
vt 0.467185 0.625617
vt 0.726953 0.763171
vt 0.431023 0.490823
vt 0.501781 0.825107
vt 0.860875 0.525512
vt 0.984069 0.598250
vt 0.254429 0.379915
vt 0.485628 0.463576
vt 0.250692 0.589248
vt 0.370993 0.495384
vt 0.462484 0.256284
vt 0.357733 0.759450
vt 0.632448 0.523591
vt 0.735271 0.546877
vt 0.770107 0.584086
vt 0.662825 0.012383
vt 0.218145 0.193149
vt 0.731413 0.330583
vt 0.701760 0.986307
vt 0.989855 0.732083
vt 0.151245 0.910688
vt 0.532037 0.141296
vt 0.174389 0.504747
vt 0.169567 0.674829
vt 0.113636 0.992428
vt 0.315182 0.475819
vt 0.273715 0.434769
vt 0.295292 0.274049
vt 0.919700 0.846592
vt 0.482735 0.367432
vt 0.329888 0.740726
vt 0.262264 0.322301
vt 0.568923 0.967462
vt 0.662825 0.299255
vt 0.595563 0.885482
vt 0.556025 0.992428
vt 0.589776 0.029308
vt 0.008282 0.992428
vn -0.8448 0.1961 -0.4978
vn -0.8552 0.1315 -0.5013
vn 0.0000 0.0331 0.9995
vn 0.0000 0.1322 0.9912
vn 0.0000 0.2299 0.9732
vn 0.0000 0.1322 -0.9912
vn 0.0000 0.2300 -0.9732
vn 0.2377 0.5283 -0.8151
vn 0.7025 0.4546 -0.5475
vn 0.6719 0.5289 -0.5185
vn 0.8697 0.0402 0.4919
vn 0.8564 0.1203 0.5020
vn 0.8555 0.1209 0.5034
vn 0.8565 0.1202 -0.5020
vn 0.8448 0.1961 -0.4978
vn -0.8688 0.0627 -0.4913
vn -0.8543 0.1319 -0.5027
vn 0.2529 0.5380 0.8041
vn 0.5025 0.4776 0.7207
vn 0.2556 0.4826 0.8377
vn 0.0000 0.0331 -0.9995
vn -0.8552 0.1313 0.5013
vn -0.8448 0.1961 0.4978
vn 0.8698 0.0397 -0.4918
vn 0.8718 0.0386 -0.4884
vn 0.8399 0.5428 -0.0009
vn 0.8268 0.4677 0.3126
vn 0.8032 0.5159 0.2980
vn -0.6485 0.6083 -0.4577
vn -0.7434 0.6663 0.0586
vn -0.8276 0.5612 0.0110
vn 0.7869 0.6171 -0.0019
vn 0.7759 0.5825 0.2421
vn 0.7548 0.6314 0.1776
vn 0.5710 0.5514 0.6082
vn -0.1267 0.9917 -0.0219
vn 0.1381 0.5739 0.8072
vn 0.6489 0.5556 0.5199
vn 0.6737 0.7237 0.1496
vn -0.2523 0.5721 0.7804
vn 0.2232 0.5073 0.8323
vn -0.3191 0.4801 0.8171
vn -0.9178 0.3946 0.0431
vn -0.7096 0.5135 -0.4824
vn -0.7162 0.4565 -0.5279
vn -0.3292 0.4392 0.8359
vn -0.2642 0.5221 0.8109
vn -0.2980 0.5910 -0.7496
vn 0.2159 0.6265 -0.7489
vn -0.3162 0.4422 -0.8393
vn -0.2761 0.4899 -0.8269
vn -0.7262 0.4515 0.5184
vn -0.3106 0.5221 0.7943
vn -0.2872 0.4958 0.8196
vn -0.8854 0.4646 0.0134
vn -0.7543 0.4064 0.5156
vn -0.9302 0.3670 0.0020
vn 0.2091 0.6635 0.7184
vn 0.2460 0.5744 0.7807
vn 0.8043 0.5943 0.0024
vn -0.7309 0.4518 -0.5115
vn -0.7589 0.3665 -0.5384
vn -0.7103 0.5058 0.4895
vn -0.9301 0.2581 -0.2613
vn -0.2591 0.6976 -0.6680
vn -0.5478 0.7331 -0.4030
vn -0.6308 0.6234 0.4621
vn -0.2483 0.6918 0.6781
vn 0.2239 0.5214 -0.8234
vn 0.6245 0.6594 -0.4187
vn 0.6785 0.5451 -0.4924
vn 0.6243 0.6175 -0.4784
vn 0.8109 0.5852 0.0024
vn -0.2854 0.4489 0.8468
vn 0.8075 0.5898 0.0024
vn 0.2228 0.5018 0.8358
vn -0.2934 0.5061 -0.8110
vn -0.6738 0.5556 -0.4872
vn -0.7196 0.4895 -0.4926
vn 0.7755 0.5660 0.2797
vn 0.2221 0.6551 -0.7222
vn 0.6364 0.5759 -0.5132
vn 0.4670 0.5139 0.7196
vn -0.7530 0.3712 0.5433
vn 0.8771 0.4803 -0.0007
vn 0.2642 0.4253 -0.8656
vn -0.2974 0.3839 -0.8742
vn 0.8448 0.1961 0.4978
vn -0.6778 0.5414 0.4975
vn 0.6358 0.6042 -0.4803
vn 0.2348 0.5840 0.7770
vn -0.8055 0.5926 -0.0099
vn 0.3193 0.5285 -0.7866
vn 0.4299 0.5840 0.6886
vn -0.2670 0.6064 -0.7490
vn 0.1827 0.7515 -0.6340
vn 0.6843 0.7119 -0.1577
vn 0.2169 0.5313 -0.8190
vn -0.3170 0.5096 -0.7999
vn -0.7264 0.4696 0.5017
vn -0.6944 0.5212 0.4960
vn 0.7776 0.5578 0.2903
vn 0.6052 0.6831 -0.4087
vn -0.8789 0.4770 0.0020
vn 0.5040 0.5419 0.6725
vn -0.8687 0.0623 0.4913
vn -0.8707 0.0612 0.4880
vn 0.8717 0.0391 0.4885
vn 0.8556 0.1206 -0.5035
vn -0.8707 0.0616 -0.4879
vn 0.4979 0.4915 0.7146
vn -0.8544 0.1317 0.5027
vn 0.7279 0.5955 0.3399
vn 0.3796 0.6571 0.6512
vn 0.7374 0.5696 -0.3630
usemtl Tree_1_w
s 1
f 1/1/1 3/2/2 4/3/1
f 6/4/3 8/5/4 5/6/3
f 8/5/4 10/7/5 9/8/5
f 3/2/6 12/9/7 4/3/7
f 14/10/8 16/11/9 13/12/10
f 17/13/11 8/14/12 18/15/13
f 11/16/14 19/17/15 12/9/15
f 20/18/16 3/2/2 2/19/17
f 22/20/18 24/21/19 25/22/20
f 21/23/21 11/16/6 3/2/6
f 7/24/22 1/1/23 10/7/23
f 17/13/24 11/16/14 26/25/25
f 27/26/26 24/27/27 23/28/28
f 30/29/29 32/30/30 29/31/31
f 34/32/32 36/33/33 33/34/34
f 37/35/35 39/36/36 40/37/37
f 41/38/38 38/39/39 37/35/35
f 43/40/40 45/41/41 46/42/42
f 48/43/43 50/44/44 47/45/45
f 51/46/46 40/37/37 53/47/47
f 54/48/48 14/10/8 56/49/49
f 57/50/50 50/44/44 58/51/51
f 60/52/52 62/53/53 59/54/54
f 63/55/55 64/56/56 65/57/57
f 43/40/40 67/58/58 44/59/59
f 68/60/60 13/12/10 27/26/26
f 70/61/61 65/57/57 71/62/62
f 48/43/43 73/63/63 49/64/64
f 30/29/29 75/65/65 31/66/66
f 43/40/40 77/67/67 66/68/68
f 79/69/69 81/70/70 78/71/71
f 34/32/32 83/72/72 35/73/73
f 60/52/52 84/74/74 64/56/56
f 83/72/72 86/75/75 35/73/73
f 52/76/76 37/35/35 40/37/37
f 55/77/77 87/78/78 70/61/61
f 29/31/31 89/79/79 30/29/29
f 36/33/33 86/75/75 90/80/80
f 91/81/81 85/82/82 83/72/72
f 44/59/59 90/83/83 45/41/41
f 51/46/46 73/63/63 72/84/84
f 27/26/26 16/11/9 28/85/85
f 15/86/86 55/77/77 93/87/87
f 19/17/88 8/14/12 9/88/88
f 29/31/31 77/67/67 76/89/89
f 55/77/77 71/62/62 93/87/87
f 59/54/54 25/22/20 84/74/74
f 69/90/90 14/10/8 13/12/10
f 59/54/54 94/91/91 22/20/18
f 63/55/55 87/78/78 95/92/92
f 79/69/69 58/51/51 80/93/93
f 67/58/58 36/94/94 44/59/59
f 74/95/95 96/96/96 75/65/65
f 39/36/36 50/44/44 49/64/64
f 39/36/36 80/93/93 58/51/51
f 38/97/97 78/71/71 81/70/70
f 92/98/98 74/95/95 97/99/99
f 76/89/89 46/42/42 98/100/100
f 63/55/55 61/101/101 60/52/52
f 99/102/102 27/26/26 23/28/28
f 30/29/29 97/99/99 74/95/95
f 40/37/37 39/36/36 53/47/47
f 81/70/70 39/36/36 38/97/97
f 82/103/103 91/81/81 83/72/72
f 76/89/89 88/104/104 29/31/31
f 39/36/36 73/63/63 53/47/47
f 99/105/105 22/20/18 94/91/91
f 20/18/106 7/24/22 6/4/107
f 1/1/1 2/19/17 3/2/2
f 6/4/3 7/24/4 8/5/4
f 8/5/4 7/24/4 10/7/5
f 3/2/6 11/16/6 12/9/7
f 14/10/8 15/86/86 16/11/9
f 17/13/11 5/106/108 8/14/12
f 11/16/14 18/15/109 19/17/15
f 20/18/16 21/23/110 3/2/2
f 22/20/18 23/107/111 24/21/19
f 21/23/21 26/25/21 11/16/6
f 7/24/22 2/19/112 1/1/23
f 17/13/24 18/15/109 11/16/14
f 27/26/26 28/85/85 24/27/27
f 30/29/29 31/66/66 32/30/30
f 34/32/32 35/73/73 36/33/33
f 37/35/35 38/39/39 39/36/36
f 41/38/38 42/108/113 38/39/39
f 43/40/40 44/59/59 45/41/41
f 48/43/43 49/64/64 50/44/44
f 51/46/46 52/76/76 40/37/37
f 54/48/48 55/77/77 14/10/8
f 57/50/50 47/45/45 50/44/44
f 60/52/52 61/101/101 62/53/53
f 63/55/55 60/52/52 64/56/56
f 43/40/40 66/68/68 67/58/58
f 68/60/60 69/90/90 13/12/10
f 70/61/61 63/55/55 65/57/57
f 48/43/43 72/84/84 73/63/63
f 30/29/29 74/95/95 75/65/65
f 43/40/40 76/89/89 77/67/67
f 79/69/69 80/93/93 81/70/70
f 34/32/32 82/103/103 83/72/72
f 60/52/52 59/54/54 84/74/74
f 83/72/72 85/82/82 86/75/75
f 52/76/76 41/38/38 37/35/35
f 55/77/77 54/48/48 87/78/78
f 29/31/31 88/104/104 89/79/79
f 36/33/33 35/73/73 86/75/75
f 91/81/81 92/98/98 85/82/82
f 44/59/59 36/94/94 90/83/83
f 51/46/46 53/47/47 73/63/63
f 27/26/26 13/12/10 16/11/9
f 15/86/86 14/10/8 55/77/77
f 19/17/88 18/15/13 8/14/12
f 29/31/31 32/30/30 77/67/67
f 55/77/77 70/61/61 71/62/62
f 59/54/54 22/20/18 25/22/20
f 69/90/90 56/49/49 14/10/8
f 59/54/54 62/53/53 94/91/91
f 63/55/55 70/61/61 87/78/78
f 79/69/69 57/50/50 58/51/51
f 67/58/58 33/109/114 36/94/94
f 74/95/95 91/81/81 96/96/96
f 39/36/36 58/51/51 50/44/44
f 38/97/97 42/110/115 78/71/71
f 92/98/98 91/81/81 74/95/95
f 76/89/89 43/40/40 46/42/42
f 63/55/55 95/92/92 61/101/101
f 99/102/102 68/60/60 27/26/26
f 30/29/29 89/79/79 97/99/99
f 81/70/70 80/93/93 39/36/36
f 82/103/103 96/96/96 91/81/81
f 76/89/89 98/100/100 88/104/104
f 39/36/36 49/64/64 73/63/63
f 99/105/105 23/107/111 22/20/18
f 20/18/106 2/19/112 7/24/22
