# Blender v3.2.1 OBJ File: ''
# www.blender.org
mtllib tree2.mtl
o Tree_2_w_Tree_2_w_0
v -0.077041 0.446083 -0.143398
v -0.073122 0.541615 -0.091248
v -0.012589 0.546372 -0.091248
v 0.014629 0.448461 -0.150845
v 0.005702 0.210621 -0.004055
v -0.012371 0.210621 0.027126
v 0.002436 0.095665 0.034298
v 0.023775 0.101215 -0.004055
v -0.077477 0.711671 0.023262
v -0.054178 0.712463 0.040092
v -0.024129 0.794122 -0.013710
v -0.086404 0.711274 -0.004055
v -0.135180 0.576895 -0.073315
v -0.154777 0.581651 -0.004055
v -0.077477 0.711671 -0.031368
v -0.071380 -0.017309 0.051682
v -0.040678 0.084169 0.034298
v -0.062234 0.078620 -0.004055
v -0.103606 -0.017309 -0.004055
v -0.048734 0.210621 0.027126
v -0.066807 0.210621 -0.004055
v 0.036405 0.550336 0.059406
v -0.012589 0.546372 0.095005
v 0.014629 0.448461 0.142735
v 0.074728 0.457975 0.082031
v -0.122115 0.537651 0.059406
v -0.073122 0.541615 0.095005
v -0.065065 0.652211 0.047272
v -0.092065 0.649832 0.027676
v -0.071380 -0.017309 -0.060070
v -0.040678 0.084170 -0.042686
v 0.002436 0.095665 -0.042686
v -0.006709 -0.017309 -0.060070
v -0.048734 0.210621 -0.035511
v -0.012371 0.210621 -0.035511
v 0.025517 -0.017309 -0.004055
v -0.018467 0.270874 -0.165474
v -0.108179 0.270478 -0.146160
v -0.080307 0.399704 -0.103390
v -0.030661 0.402082 -0.113873
v -0.058533 0.167017 0.226891
v 0.068849 0.167017 0.178329
v 0.040324 0.272460 0.122047
v -0.049387 0.272063 0.141357
v -0.194406 0.302982 -0.139263
v -0.226415 0.309721 -0.004055
v -0.170671 0.395740 -0.004055
v -0.144760 0.396929 -0.084351
v 0.118495 0.162260 -0.170437
v 0.065582 0.272856 -0.127945
v 0.111527 0.268496 -0.048477
v 0.187303 0.172963 -0.063107
v -0.171543 0.304964 0.109627
v -0.115147 0.302982 0.185783
v -0.084662 0.400497 0.125904
v -0.144760 0.396929 0.076241
v -0.065065 0.652211 -0.055382
v -0.031750 0.654985 -0.055382
v -0.105783 0.535669 0.041195
v -0.120372 0.534083 -0.004055
v -0.000395 0.404461 -0.134014
v -0.084662 0.400497 -0.134014
v -0.067025 0.539633 -0.077450
v -0.019339 0.544390 -0.077450
v -0.258424 0.148386 0.046989
v -0.172849 0.163846 0.152946
v -0.133437 0.270081 0.103832
v -0.179382 0.267306 0.024364
v -0.122115 0.537651 -0.055649
v -0.152817 0.442912 -0.090141
v -0.169801 0.272063 -0.078007
v -0.114493 0.402479 -0.065586
v -0.094461 0.417145 0.049194
v -0.119937 0.409217 0.005604
v 0.001565 0.425866 0.059132
v -0.048081 0.423884 0.069897
v -0.006709 -0.017309 0.051682
v -0.140841 0.536065 0.002018
v -0.188527 0.447272 -0.004055
v -0.005185 0.171378 -0.238590
v -0.148897 0.159089 -0.198586
v -0.223366 0.156711 -0.084625
v 0.011581 0.301397 0.166187
v 0.111092 0.304964 0.101627
v 0.055566 0.402479 0.076241
v -0.000395 0.404461 0.125904
v 0.168576 0.161467 0.082306
v 0.101946 0.271270 0.053886
v 0.047945 0.579669 -0.067799
v -0.004314 0.589183 -0.106976
v -0.025435 0.713256 -0.048203
v -0.002136 0.713653 -0.031368
v -0.105783 0.535669 -0.049305
v 0.081696 0.403668 -0.004055
v 0.034009 0.549939 -0.004055
v 0.019203 0.548354 0.041195
v -0.019339 0.544390 0.069340
v -0.067025 0.539633 0.069340
v 0.035751 0.423092 0.021332
v 0.145278 0.309325 -0.004055
v 0.015718 0.408425 -0.093452
v -0.127340 0.576102 0.059406
v -0.072686 0.582841 0.098866
v 0.113922 0.306550 -0.130154
v 0.005702 0.301397 -0.201065
v 0.055566 0.402479 -0.084351
v -0.092065 0.649832 -0.035786
v 0.019203 0.548354 -0.049305
v 0.036405 0.550336 -0.055649
v -0.004750 0.657364 -0.035786
v -0.102518 0.649039 -0.004055
v 0.041195 0.416353 -0.049858
v 0.055131 0.551525 0.002018
v 0.005484 0.658157 -0.004055
v -0.004750 0.657364 0.027676
v -0.031750 0.654985 0.047272
v 0.074728 0.457975 -0.090141
v 0.109785 0.463921 -0.004055
v -0.115147 0.299018 -0.196098
v -0.073122 0.577291 -0.106976
v -0.054178 0.712463 -0.048203
v -0.006056 0.591165 0.105488
v 0.047945 0.579669 0.059406
v -0.002136 0.713653 0.023262
v -0.025435 0.713256 0.040092
v -0.152817 0.442911 0.082031
v 0.006791 0.714049 -0.004055
v 0.075817 0.586012 -0.005161
v -0.077041 0.446083 0.135288
vt 0.056065 0.417623
vt 0.156200 0.404212
vt 0.108299 0.478929
vt 0.517506 0.268429
vt 0.619085 0.215266
vt 0.517506 0.215266
vt 0.131888 0.812758
vt 0.015144 0.730738
vt 0.151266 0.783542
vt 0.295812 0.844608
vt 0.156561 0.748219
vt 0.320003 0.750614
vt 0.703575 0.008358
vt 0.619085 0.056373
vt 0.703575 0.056254
vt 0.517506 0.056373
vt 0.618965 0.008358
vt 0.517506 0.008358
vt 0.152951 0.116961
vt 0.183761 0.022128
vt 0.202537 0.093612
vt 0.088561 0.204369
vt 0.181836 0.208321
vt 0.167995 0.234543
vt 0.619085 0.108220
vt 0.703575 0.161024
vt 0.703575 0.108220
vt 0.517506 0.108220
vt 0.619085 0.161024
vt 0.703575 0.215266
vt 0.536281 0.468990
vt 0.527977 0.344942
vt 0.568055 0.367572
vt 0.940313 0.387569
vt 0.880256 0.260886
vt 0.991344 0.270944
vt 0.334085 0.772646
vt 0.466355 0.751812
vt 0.414723 0.662607
vt 0.634972 0.585136
vt 0.714768 0.471146
vt 0.751476 0.564422
vt 0.293285 0.890588
vt 0.366581 0.989132
vt 0.374283 0.898131
vt 0.181475 0.316324
vt 0.201815 0.335722
vt 0.505591 0.880051
vt 0.407261 0.817548
vt 0.626186 0.701043
vt 0.576841 0.826289
vt 0.622094 0.822337
vt 0.271500 0.171082
vt 0.363933 0.262203
vt 0.249355 0.278487
vt 0.115641 0.364579
vt 0.019477 0.344942
vt 0.089283 0.314648
vt 0.458773 0.422772
vt 0.499332 0.307943
vt 0.364294 0.171082
vt 0.480316 0.244003
vt 0.739320 0.285432
vt 0.753642 0.241009
vt 0.619085 0.268429
vt 0.703575 0.268429
vt 0.005516 0.263999
vt 0.079534 0.259209
vt 0.505591 0.564422
vt 0.386199 0.493417
vt 0.313023 0.389365
vt 0.957163 0.880769
vt 0.838733 0.830958
vt 0.871470 0.900526
vt 0.402447 0.353683
vt 0.882904 0.989132
vt 0.799979 0.417982
vt 0.869424 0.495692
vt 0.517506 0.320874
vt 0.240088 0.585376
vt 0.096263 0.656261
vt 0.179308 0.523591
vt 0.538207 0.712059
vt 0.536161 0.846285
vt 0.779639 0.764983
vt 0.733784 0.891785
vt 0.754846 0.933334
vt 0.762789 0.989132
vt 0.488741 0.923276
vt 0.853898 0.346379
vt 0.712361 0.323389
vt 0.914076 0.771568
vt 0.964625 0.171082
vt 0.873516 0.171082
vt 0.619085 0.320874
vt 0.703575 0.320874
vt 0.613549 0.372362
vt 0.625344 0.483838
vt 0.165347 0.969256
vt 0.243458 0.922318
vt 0.737274 0.620459
vt 0.703214 0.719003
vt 0.168115 0.291299
vt 0.665302 0.834311
vt 0.703093 0.858259
vt 0.227811 0.347816
vt 0.206990 0.428399
vt 0.163181 0.263281
vt 0.657719 0.359909
vt 0.256697 0.086787
vt 0.230459 0.175034
vt 0.113835 0.155516
vt 0.257178 0.352006
vt 0.261511 0.435823
vt 0.203379 0.187606
vt 0.180151 0.501320
vt 0.613068 0.598786
vt 0.147535 0.712418
vt 0.126473 0.680687
vt 0.077127 0.988174
vt 0.015144 0.830000
vt 0.066175 0.837664
vt 0.019718 0.182457
vt 0.295090 0.659613
vt 0.015144 0.637581
vt 0.095902 0.488508
vt 0.060518 0.641054
vt 0.057028 0.108459
vt 0.110826 0.045956
vt 0.102040 0.831677
vt 0.496925 0.617106
vt 0.754003 0.171082
vt 0.262474 0.511976
vt 0.841502 0.691464
vt 0.517506 0.161024
vt 0.267529 0.989132
vt 0.483927 0.171082
vt 0.979789 0.989132
vt 0.486334 0.989132
vt 0.260187 0.171322
vt 0.266686 0.010514
vt 0.015144 0.980032
vt 0.015144 0.483838
vn -0.3100 0.4757 -0.8232
vn 0.2534 0.4355 -0.8638
vn 0.2475 0.5555 -0.7938
vn 0.8564 0.1414 0.4965
vn 0.8669 0.0767 0.4926
vn 0.8565 0.1415 0.4964
vn -0.7447 0.5320 0.4029
vn 0.0341 0.9990 -0.0301
vn -0.7146 0.6993 -0.0158
vn -0.8914 0.4511 0.0440
vn -0.6486 0.6126 -0.4517
vn -0.6883 0.4698 -0.5527
vn -0.8215 0.3478 0.4519
vn -0.8677 0.1569 0.4716
vn -0.8130 0.3533 0.4629
vn -0.8656 -0.0272 0.4999
vn -0.8712 0.1540 0.4662
vn -0.8646 -0.0265 0.5017
vn 0.2544 0.4353 0.8636
vn 0.7088 0.4695 0.5264
vn 0.7167 0.4333 0.5464
vn -0.7617 0.3522 0.5438
vn -0.3132 0.3953 0.8635
vn -0.7660 0.3559 0.5354
vn -0.0243 0.1068 -0.9940
vn -0.0134 0.1645 -0.9863
vn -0.0033 0.1678 -0.9858
vn -0.0029 0.0606 -0.9982
vn -0.0267 0.1060 -0.9940
vn 0.8673 0.0767 -0.4917
vn 0.8692 0.0085 -0.4944
vn 0.8673 0.0070 -0.4977
vn -0.8675 -0.0277 -0.4966
vn -0.8725 0.1510 -0.4646
vn -0.8690 0.1540 -0.4702
vn 0.0693 0.4969 -0.8650
vn -0.4603 0.3643 -0.8096
vn 0.0584 0.3718 -0.9265
vn 0.4414 0.5431 0.7142
vn -0.1013 0.5024 0.8587
vn -0.0887 0.6304 0.7712
vn -0.8586 0.5103 0.0495
vn -0.7395 0.4785 -0.4736
vn -0.6711 0.5874 -0.4523
vn 0.5754 0.5526 -0.6029
vn 0.8302 0.5180 -0.2061
vn 0.7637 0.6170 -0.1899
vn -0.7493 0.4416 0.4934
vn -0.6166 0.4172 0.6676
vn -0.7555 0.3969 0.5212
vn -0.3159 0.3132 -0.8956
vn 0.2635 0.3442 -0.9012
vn -0.8232 0.3427 -0.4525
vn -0.8146 0.3484 -0.4637
vn -0.9407 0.3392 0.0000
vn -0.8825 0.4703 0.0023
vn 0.2791 0.4967 -0.8218
vn -0.3136 0.3866 -0.8673
vn 0.2665 0.3727 -0.8888
vn -0.7283 0.5154 0.4517
vn -0.8706 0.4573 0.1817
vn -0.8114 0.5642 0.1528
vn -0.3253 0.3988 -0.8574
vn -0.7101 0.4339 -0.5545
vn -0.7520 0.3838 -0.5359
vn -0.4454 0.4472 -0.7757
vn -0.8326 0.3921 -0.3912
vn -0.7962 0.4284 0.4273
vn -0.9022 0.3966 0.1697
vn 0.4551 0.4366 0.7760
vn -0.1323 0.4219 0.8970
vn 0.8684 0.0074 0.4959
vn 0.8661 0.0760 0.4941
vn 0.8666 0.0060 0.4990
vn -0.8922 0.4513 0.0187
vn -0.9225 0.3856 0.0166
vn 0.0822 0.5571 -0.8264
vn -0.5082 0.4711 -0.7210
vn -0.8322 0.4430 -0.3335
vn 0.3119 0.4453 0.8393
vn 0.7465 0.4155 0.5197
vn 0.3203 0.3827 0.8666
vn -0.8411 0.4217 -0.3388
vn 0.0134 0.3968 0.9178
vn 0.7888 0.5028 0.3534
vn 0.7398 0.5552 0.3799
vn -0.0026 0.0611 0.9981
vn -0.0283 0.1091 0.9936
vn 0.0009 0.0627 0.9980
vn 0.2751 0.4363 -0.8567
vn 0.6170 0.6398 -0.4582
vn 0.7186 0.4206 -0.5538
vn -0.2999 0.4891 -0.8190
vn -0.7713 0.3582 -0.5262
vn 0.8976 0.4408 -0.0027
vn 0.7539 0.3221 0.5726
vn 0.2691 0.3662 0.8908
vn -0.0336 0.3717 0.9278
vn -0.7711 0.3598 0.5253
vn 0.4381 0.4852 0.7567
vn 0.8338 0.4406 0.3326
vn 0.6689 0.5261 0.5252
vn -0.4072 0.5625 0.7196
vn -0.3678 0.4546 0.8112
vn -0.0171 0.1700 0.9853
vn -0.0259 0.1099 0.9936
vn -0.0070 0.1733 0.9849
vn 0.5619 0.4050 -0.7213
vn 0.6120 0.4723 -0.6343
vn -0.3475 0.4323 0.8321
vn -0.7183 0.4123 0.5604
vn 0.6734 0.5763 -0.4631
vn 0.7420 0.4720 -0.4761
vn -0.7768 0.3052 -0.5509
vn 0.7519 0.3281 -0.5718
vn 0.9508 0.3100 0.0000
vn 0.7350 0.3866 -0.5570
vn 0.7063 0.4473 -0.5487
vn -0.9467 0.3221 -0.0013
vn 0.8670 0.4320 -0.2483
vn 0.8479 0.4368 0.3005
vn 0.7163 0.4370 0.5440
vn -0.3141 0.3846 0.8680
vn 0.8735 0.3900 -0.2915
vn 0.8459 0.4558 -0.2771
vn 0.2482 0.4255 0.8703
vn 0.6869 0.5075 -0.5202
vn 0.2330 0.5320 -0.8141
vn -0.2339 0.6535 -0.7199
vn 0.4385 0.3925 -0.8085
vn 0.2721 0.4598 0.8453
vn 0.4745 0.6555 0.5876
vn 0.2128 0.6326 0.7446
vn -0.7306 0.3879 0.5619
vn -0.2679 0.4304 -0.8620
vn 0.7053 0.6590 0.2613
vn 0.8922 0.4516 -0.0053
vn 0.8046 0.5938 0.0075
vn -0.3213 0.3945 0.8609
vn 0.2660 0.4778 0.8372
vn -0.3229 0.3083 0.8948
vn -0.2616 0.5608 -0.7856
vn -0.4148 0.3926 0.8209
vn 0.8141 0.4821 -0.3238
vn 0.8202 0.5716 0.0217
vn 0.8582 0.1417 -0.4934
vn 0.8682 0.0775 -0.4901
vn 0.0006 0.0621 -0.9981
vn -0.8666 -0.0270 -0.4983
vn -0.6748 0.5285 0.5151
vn -0.8321 0.3715 0.4118
vn 0.1238 0.4745 0.8715
vn -0.5658 0.3726 0.7356
vn 0.8617 0.4176 0.2883
vn 0.8026 0.4825 0.3506
vn 0.6197 0.4061 0.6715
vn 0.8270 0.4224 0.3710
vn 0.8583 0.1418 -0.4931
usemtl Tree_2_w
s 1
f 1/1/1 3/2/2 4/3/3
f 6/4/4 8/5/5 5/6/6
f 9/7/7 11/8/8 12/9/9
f 14/10/10 15/11/11 13/12/12
f 16/13/13 18/14/14 19/15/15
f 21/16/16 17/17/17 20/18/18
f 23/19/19 25/20/20 22/21/21
f 26/22/22 28/23/23 29/24/24
f 31/25/25 33/26/26 30/27/27
f 34/28/28 32/29/29 31/25/25
f 32/29/30 36/30/31 33/26/32
f 21/16/33 31/25/34 18/14/35
f 37/31/36 39/32/37 40/33/38
f 42/34/39 44/35/40 41/36/41
f 46/37/42 48/38/43 45/39/44
f 49/40/45 51/41/46 52/42/47
f 53/43/48 55/44/49 56/45/50
f 3/2/2 57/46/51 58/47/52
f 18/14/35 30/27/53 19/15/54
f 56/45/50 60/48/55 47/49/56
f 61/50/57 63/51/58 64/52/59
f 66/53/60 68/54/61 65/55/62
f 2/56/63 70/57/64 69/58/65
f 38/59/66 72/60/67 39/32/37
f 67/61/68 74/62/69 68/54/61
f 44/35/40 75/63/70 76/64/71
f 36/30/72 7/65/73 77/66/74
f 69/58/65 79/67/75 78/68/76
f 38/59/66 80/69/77 81/70/78
f 68/54/61 82/71/79 65/55/62
f 83/72/80 85/73/81 86/74/82
f 71/75/83 81/70/78 82/71/79
f 46/37/42 56/45/50 47/49/56
f 55/76/84 83/72/80 86/74/82
f 71/75/83 74/62/69 72/60/67
f 52/42/47 88/77/85 87/78/86
f 20/79/87 7/65/88 6/4/89
f 90/80/90 92/81/91 89/82/92
f 62/83/93 93/84/94 63/51/58
f 94/85/95 96/86/96 85/73/81
f 85/73/81 97/87/97 86/74/82
f 98/88/98 86/74/82 97/87/97
f 55/44/49 59/89/99 56/45/50
f 43/90/100 99/91/101 75/63/70
f 48/38/43 60/48/55 93/84/94
f 84/92/102 94/85/95 85/73/81
f 66/93/103 44/35/40 67/94/104
f 77/66/105 17/95/106 16/96/107
f 37/31/36 101/97/108 50/98/109
f 103/99/110 9/7/7 102/100/111
f 50/98/109 80/69/77 37/31/36
f 104/101/112 61/50/57 106/102/113
f 2/56/63 107/103/114 57/46/51
f 94/85/95 108/104/115 95/105/116
f 3/2/2 110/106/117 109/107/118
f 69/58/65 111/108/119 107/103/114
f 99/91/101 51/41/46 112/109/120
f 113/110/121 115/111/122 22/21/21
f 23/19/19 28/23/23 27/112/123
f 78/68/76 29/24/24 111/108/119
f 109/107/118 114/113/124 113/114/125
f 22/21/21 116/115/126 23/19/19
f 117/116/127 3/2/2 109/107/118
f 25/20/20 113/110/121 22/21/21
f 42/34/39 88/77/85 43/90/100
f 105/117/128 62/83/93 61/50/57
f 14/10/10 9/7/7 12/9/9
f 50/98/109 112/109/120 51/41/46
f 90/80/90 121/118/129 91/119/130
f 122/120/131 124/121/132 125/122/133
f 78/68/76 126/123/134 26/22/22
f 106/102/113 64/52/59 108/104/115
f 120/124/135 15/11/11 121/118/129
f 124/125/136 128/126/137 127/127/138
f 26/22/22 129/128/139 27/112/123
f 23/19/19 129/128/139 24/129/140
f 122/120/131 10/130/141 103/99/110
f 45/39/44 62/83/93 119/131/142
f 125/122/133 11/8/8 10/130/141
f 11/8/8 127/127/138 92/81/91
f 128/126/137 92/81/91 127/127/138
f 44/35/40 73/132/143 67/94/104
f 118/133/144 109/107/118 113/114/125
f 100/134/145 106/102/113 94/85/95
f 11/8/8 15/11/11 12/9/9
f 11/8/8 91/119/130 121/118/129
f 35/135/146 8/5/147 32/29/30
f 1/1/1 2/56/63 3/2/2
f 6/4/4 7/65/73 8/5/5
f 9/7/7 10/130/141 11/8/8
f 14/10/10 12/9/9 15/11/11
f 16/13/13 17/17/17 18/14/14
f 21/16/16 18/14/14 17/17/17
f 23/19/19 24/129/140 25/20/20
f 26/22/22 27/112/123 28/23/23
f 31/25/25 32/29/29 33/26/26
f 34/28/28 35/135/148 32/29/29
f 32/29/30 8/5/147 36/30/31
f 21/16/33 34/28/149 31/25/34
f 37/31/36 38/59/66 39/32/37
f 42/34/39 43/90/100 44/35/40
f 46/37/42 47/49/56 48/38/43
f 49/40/45 50/98/109 51/41/46
f 53/43/48 54/136/150 55/44/49
f 3/2/2 2/56/63 57/46/51
f 18/14/35 31/25/34 30/27/53
f 56/45/50 59/89/99 60/48/55
f 61/50/57 62/83/93 63/51/58
f 66/53/60 67/61/68 68/54/61
f 2/56/63 1/1/1 70/57/64
f 38/59/66 71/75/83 72/60/67
f 67/61/68 73/137/151 74/62/69
f 44/35/40 43/90/100 75/63/70
f 36/30/72 8/5/5 7/65/73
f 69/58/65 70/57/64 79/67/75
f 38/59/66 37/31/36 80/69/77
f 68/54/61 71/75/83 82/71/79
f 83/72/80 84/92/102 85/73/81
f 71/75/83 38/59/66 81/70/78
f 46/37/42 53/43/48 56/45/50
f 55/76/84 54/138/152 83/72/80
f 71/75/83 68/54/61 74/62/69
f 52/42/47 51/41/46 88/77/85
f 20/79/87 17/95/106 7/65/88
f 90/80/90 91/119/130 92/81/91
f 62/83/93 48/38/43 93/84/94
f 94/85/95 95/105/116 96/86/96
f 85/73/81 96/86/96 97/87/97
f 98/88/98 55/76/84 86/74/82
f 55/44/49 98/139/153 59/89/99
f 43/90/100 88/77/85 99/91/101
f 48/38/43 47/49/56 60/48/55
f 84/92/102 100/134/145 94/85/95
f 66/93/103 41/36/41 44/35/40
f 77/66/105 7/65/88 17/95/106
f 37/31/36 40/33/38 101/97/108
f 103/99/110 10/130/141 9/7/7
f 50/98/109 49/40/45 80/69/77
f 104/101/112 105/117/128 61/50/57
f 2/56/63 69/58/65 107/103/114
f 94/85/95 106/102/113 108/104/115
f 3/2/2 58/47/52 110/106/117
f 69/58/65 78/68/76 111/108/119
f 99/91/101 88/77/85 51/41/46
f 113/110/121 114/140/154 115/111/122
f 23/19/19 116/115/126 28/23/23
f 78/68/76 26/22/22 29/24/24
f 109/107/118 110/106/117 114/113/124
f 22/21/21 115/111/122 116/115/126
f 117/116/127 4/3/3 3/2/2
f 25/20/20 118/141/155 113/110/121
f 42/34/39 87/78/86 88/77/85
f 105/117/128 119/131/142 62/83/93
f 14/10/10 102/100/111 9/7/7
f 50/98/109 101/97/108 112/109/120
f 90/80/90 120/124/135 121/118/129
f 122/120/131 123/142/156 124/121/132
f 78/68/76 79/67/75 126/123/134
f 106/102/113 61/50/57 64/52/59
f 120/124/135 13/12/12 15/11/11
f 124/125/136 123/143/157 128/126/137
f 26/22/22 126/123/134 129/128/139
f 23/19/19 27/112/123 129/128/139
f 122/120/131 125/122/133 10/130/141
f 45/39/44 48/38/43 62/83/93
f 125/122/133 124/121/132 11/8/8
f 11/8/8 124/125/136 127/127/138
f 128/126/137 89/82/92 92/81/91
f 44/35/40 76/64/71 73/132/143
f 118/133/144 117/116/127 109/107/118
f 100/134/145 104/101/112 106/102/113
f 11/8/8 121/118/129 15/11/11
f 11/8/8 92/81/91 91/119/130
f 35/135/146 5/6/158 8/5/147
